{
 "cells": [
  {
   "cell_type": "code",
   "execution_count": null,
   "metadata": {},
   "outputs": [],
   "source": [
    "import jax\n",
    "import jax.numpy as np\n",
    "import math\n",
    "import numpy as np\n",
    "import tensorflow as tf\n",
    "import time\n",
    "import matplotlib.pyplot as plt"
   ]
  },
  {
   "cell_type": "code",
   "execution_count": null,
   "metadata": {},
   "outputs": [],
   "source": [
    "# Creating a key for reproducibility\n",
    "key = jax.random.PRNGKey(1)"
   ]
  },
  {
   "cell_type": "markdown",
   "metadata": {},
   "source": [
    "<https://www.tensorflow.org/datasets/api_docs/python/tfds/load>"
   ]
  },
  {
   "cell_type": "code",
   "execution_count": null,
   "metadata": {},
   "outputs": [],
   "source": [
    "# Import data\n",
    "# 1150 files\n",
    "import tensorflow_datasets as tfds\n",
    "\n",
    "# tfds works in both Eager and Graph modes\n",
    "# tf.enable_eager_execution()\n",
    "\n",
    "# Load the full GMD with MIDI only (no audio) as a tf.data.Dataset\n",
    "dataset = tfds.load(\n",
    "    name=\"groove/full-midionly\",\n",
    "    split=tfds.Split.TRAIN,\n",
    "    try_gcs=True)"
   ]
  },
  {
   "cell_type": "code",
   "execution_count": null,
   "metadata": {},
   "outputs": [],
   "source": [
    "# Build your input pipeline\n",
    "dataset = dataset.shuffle(1024).batch(32).prefetch(\n",
    "    tf.data.experimental.AUTOTUNE)\n",
    "for features in dataset.take(1):\n",
    "  # Access the features you are interested in\n",
    "  midi, genre = features[\"midi\"], features[\"style\"][\"primary\"]"
   ]
  },
  {
   "cell_type": "code",
   "execution_count": null,
   "metadata": {},
   "outputs": [],
   "source": [
    "import tensorflow_datasets as tfds\n",
    "\n",
    "# Construct a tf.data.Dataset\n",
    "ds = tfds.load('mnist', split='train')"
   ]
  },
  {
   "cell_type": "code",
   "execution_count": 1,
   "metadata": {},
   "outputs": [],
   "source": [
    "import numpy as np\n",
    "# import tensorflow as tf\n",
    "from pathlib import Path\n",
    "from mido import MidiFile\n",
    "import mido\n",
    "\n",
    "seed = 42\n",
    "# tf.random.set_seed(seed)\n",
    "np.random.seed(seed)\n",
    "\n",
    "class DataPoint:\n",
    "    def __init__(self,\n",
    "                 midi_data,\n",
    "                 features,\n",
    "                 audio_file_path,\n",
    "                 midi_file_path,\n",
    "                 purpose) -> None:\n",
    "        self.midi_data = midi_data\n",
    "        self.features = features\n",
    "        self.audio_file_path = audio_file_path\n",
    "        self.midi_file_path = midi_file_path\n",
    "        self.purpose = purpose\n",
    "\n",
    "\n",
    "\n",
    "\n",
    "feature_names = [\"style\", \"bpm\", \"beat_type\", \"time_signature\", \"duration\"]\n",
    "feature_to_column_idx = {\n",
    "    \"session\" : 0,\n",
    "    \"drummer\" : 1,\n",
    "    \"id\" : 2,\n",
    "    \"style\" : 3,\n",
    "    \"bpm\" : 4,\n",
    "    \"beat_type\" : 5,\n",
    "    \"time_signature\" : 6,\n",
    "    \"midi_filename\" : 7,\n",
    "    \"audio_filename\" : 8,\n",
    "    \"duration\" : 9,\n",
    "    \"split\" : 10\n",
    "}\n",
    "\n",
    "def play_audio(midi_data: MidiFile, duration: float=None) -> None:\n",
    "        \n",
    "    # Create output port for playing samples\n",
    "    with mido.open_output(autoreset=True) as outport: \n",
    "        if isinstance(duration, (float, int)):\n",
    "            for msg in midi_data.play():\n",
    "                if duration <= 0: break\n",
    "                outport.send(msg)\n",
    "                duration -= msg.time\n",
    "        else:\n",
    "            for msg in midi_data.play():\n",
    "                outport.send(msg)\n",
    "\n",
    "    if not outport.closed:\n",
    "        print(\"Closing port...\")\n",
    "        outport.close()"
   ]
  },
  {
   "cell_type": "code",
   "execution_count": 5,
   "metadata": {},
   "outputs": [
    {
     "name": "stdout",
     "output_type": "stream",
     "text": [
      "Next sample\n",
      "\n",
      "Next sample\n",
      "\n",
      "Next sample\n",
      "\n",
      "Next sample\n",
      "\n",
      "Next sample\n",
      "\n",
      "Next sample\n",
      "\n",
      "Next sample\n",
      "\n",
      "Next sample\n",
      "\n",
      "Next sample\n",
      "\n",
      "Next sample\n",
      "\n",
      "Next sample\n",
      "\n",
      "Breaking\n",
      "897\n",
      "129\n",
      "124\n"
     ]
    }
   ],
   "source": [
    "\n",
    "\n",
    "\n",
    "# Initiate data structures\n",
    "X_train = [0] * 897\n",
    "X_test = [0] * 129\n",
    "X_validation = [0] * 124\n",
    "# y_train = np.zeros(())\n",
    "# y_test = np.zeros(())\n",
    "\n",
    "# Define filename and its path\n",
    "data_filename = \"info.csv\"\n",
    "data_folder_path = Path().cwd() / \"data\"\n",
    "data_path = data_folder_path / data_filename\n",
    "\n",
    "\n",
    "\n",
    "# Open file with data information\n",
    "with data_path.open() as file:\n",
    "    columns = file.readline()\n",
    "    train_idx = 0\n",
    "    test_idx = 0\n",
    "    validation_idx = 0\n",
    "    for i, line in enumerate(file):\n",
    "        # Strip line of new line and split into list\n",
    "        line = line.strip().split(\",\")\n",
    "\n",
    "        # Check\n",
    "        # print(line)\n",
    "\n",
    "        # Attach absolute path to midi & audio files\n",
    "        midi_data_path = data_folder_path / line[7]\n",
    "        audio_data_path = data_folder_path / line[8]\n",
    "\n",
    "        # Create custom data point with all info\n",
    "        midi_data = MidiFile(midi_data_path)\n",
    "        features = {i: line[feature_to_column_idx[i]] for i in feature_names}\n",
    "        data_point = DataPoint(\n",
    "            midi_data=midi_data,\n",
    "            audio_file_path=audio_data_path,\n",
    "            midi_file_path=midi_data_path,\n",
    "            features=features,\n",
    "            purpose=line[feature_to_column_idx[\"split\"]]\n",
    "        )\n",
    "\n",
    "        # Play the sample\n",
    "        play_audio(midi_data, 3)\n",
    "\n",
    "        if data_point.purpose == \"train\":\n",
    "            X_train[train_idx] = data_point\n",
    "            train_idx += 1\n",
    "        elif data_point.purpose == \"test\":\n",
    "            X_test[test_idx] = data_point\n",
    "            test_idx += 1\n",
    "        elif data_point.purpose == \"validation\":\n",
    "            X_validation[validation_idx] = data_point\n",
    "            validation_idx += 1\n",
    "\n",
    "        # print(line.strip().split(\",\"))\n",
    "        print(\"Next sample\\n\")\n",
    "        if i == 10: print(\"Breaking\"); break\n",
    "\n",
    "print(len(X_train))\n",
    "print(len(X_test))\n",
    "print(len(X_validation))"
   ]
  },
  {
   "cell_type": "code",
   "execution_count": 14,
   "metadata": {},
   "outputs": [
    {
     "data": {
      "text/plain": [
       "124"
      ]
     },
     "execution_count": 14,
     "metadata": {},
     "output_type": "execute_result"
    }
   ],
   "source": [
    "validation_idx"
   ]
  },
  {
   "cell_type": "code",
   "execution_count": 17,
   "metadata": {},
   "outputs": [
    {
     "name": "stdout",
     "output_type": "stream",
     "text": [
      "train\n",
      "{'style': 'funk', 'bpm': '80', 'beat_type': 'beat', 'time_signature': '4-4', 'duration': '86.704688'}\n",
      "c:\\Users\\mrmar\\Downloads\\Neural Networks\\Project\\NN_Drummer_Beat_Project\\data\\drummer1\\session1\\1_funk_80_beat_4-4.mid\n",
      "c:\\Users\\mrmar\\Downloads\\Neural Networks\\Project\\NN_Drummer_Beat_Project\\data\\drummer1\\session1\\1_funk_80_beat_4-4.wav\n"
     ]
    }
   ],
   "source": [
    "# print(X_train, X_test, X_validation, sep=\"\\n\")\n",
    "# print(X_test[0])\n",
    "\n",
    "for i in X_train[:1]:\n",
    "    print(i.purpose, i.features, i.midi_file_path, i.audio_file_path, sep=\"\\n\")"
   ]
  },
  {
   "cell_type": "code",
   "execution_count": 3,
   "metadata": {},
   "outputs": [
    {
     "name": "stdout",
     "output_type": "stream",
     "text": [
      "Track 0: \n",
      "MetaMessage('set_tempo', tempo=750000, time=0)\n",
      "MetaMessage('time_signature', numerator=4, denominator=4, clocks_per_click=24, notated_32nd_notes_per_beat=8, time=0)\n",
      "MetaMessage('key_signature', key='C', time=0)\n",
      "program_change channel=9 program=0 time=0\n",
      "program_change channel=9 program=0 time=0\n",
      "note_on channel=9 note=38 velocity=7 time=1354\n",
      "note_on channel=9 note=38 velocity=0 time=39\n",
      "note_on channel=9 note=38 velocity=10 time=0\n",
      "note_on channel=9 note=38 velocity=0 time=25\n",
      "control_change channel=9 control=4 value=90 time=2\n",
      "control_change channel=9 control=4 value=88 time=30\n",
      "control_change channel=9 control=4 value=86 time=30\n",
      "control_change channel=9 control=4 value=84 time=30\n",
      "control_change channel=9 control=4 value=81 time=30\n",
      "control_change channel=9 control=4 value=79 time=30\n",
      "note_on channel=9 note=38 velocity=56 time=1\n",
      "control_change channel=9 control=4 value=77 time=29\n",
      "control_change channel=9 control=4 value=75 time=14\n",
      "control_change channel=9 control=4 value=46 time=15\n",
      "note_on channel=9 note=38 velocity=0 time=7\n",
      "control_change channel=9 control=4 value=17 time=8\n",
      "control_change channel=9 control=4 value=4 time=7\n",
      "control_change channel=9 control=4 value=34 time=15\n",
      "note_on channel=9 note=44 velocity=65 time=7\n",
      "control_change channel=9 control=4 value=64 time=8\n",
      "note_on channel=9 note=38 velocity=48 time=1\n",
      "control_change channel=9 control=4 value=90 time=11\n",
      "control_change channel=9 control=4 value=88 time=30\n",
      "note_on channel=9 note=44 velocity=0 time=15\n",
      "note_on channel=9 note=38 velocity=0 time=8\n",
      "control_change channel=9 control=4 value=85 time=7\n",
      "control_change channel=9 control=4 value=83 time=30\n",
      "note_on channel=9 note=38 velocity=47 time=25\n",
      "control_change channel=9 control=4 value=80 time=5\n",
      "control_change channel=9 control=4 value=77 time=30\n",
      "note_on channel=9 note=38 velocity=0 time=29\n",
      "control_change channel=9 control=4 value=75 time=1\n",
      "control_change channel=9 control=4 value=72 time=28\n",
      "control_change channel=9 control=4 value=66 time=15\n",
      "note_on channel=9 note=36 velocity=42 time=3\n",
      "note_on channel=9 note=46 velocity=48 time=6\n",
      "control_change channel=9 control=4 value=60 time=6\n",
      "control_change channel=9 control=4 value=56 time=10\n",
      "control_change channel=9 control=4 value=59 time=15\n",
      "control_change channel=9 control=4 value=63 time=15\n",
      "control_change channel=9 control=4 value=65 time=4\n",
      "note_on channel=9 note=36 velocity=0 time=8\n",
      "control_change channel=9 control=4 value=70 time=7\n",
      "note_on channel=9 note=46 velocity=0 time=0\n",
      "control_change channel=9 control=4 value=75 time=15\n",
      "control_change channel=9 control=4 value=77 time=5\n",
      "control_change channel=9 control=4 value=82 time=15\n",
      "control_change channel=9 control=4 value=87 time=15\n",
      "control_change channel=9 control=4 value=90 time=6\n",
      "note_on channel=9 note=42 velocity=25 time=0\n",
      "note_on channel=9 note=42 velocity=0 time=65\n",
      "note_on channel=9 note=36 velocity=44 time=46\n",
      "control_change channel=9 control=4 value=90 time=10\n",
      "note_on channel=9 note=42 velocity=56 time=0\n",
      "note_on channel=9 note=36 velocity=0 time=55\n",
      "note_on channel=9 note=42 velocity=0 time=10\n",
      "control_change channel=9 control=4 value=90 time=57\n",
      "note_on channel=9 note=42 velocity=21 time=0\n",
      "note_on channel=9 note=42 velocity=0 time=65\n",
      "control_change channel=9 control=4 value=90 time=52\n",
      "note_on channel=9 note=42 velocity=42 time=0\n",
      "note_on channel=9 note=38 velocity=53 time=6\n",
      "note_on channel=9 note=42 velocity=0 time=58\n",
      "note_on channel=9 note=38 velocity=0 time=7\n",
      "control_change channel=9 control=4 value=90 time=42\n",
      "note_on channel=9 note=42 velocity=39 time=0\n",
      "note_on channel=9 note=36 velocity=43 time=15\n",
      "note_on channel=9 note=42 velocity=0 time=50\n",
      "note_on channel=9 note=36 velocity=0 time=14\n",
      "control_change channel=9 control=4 value=90 time=39\n",
      "note_on channel=9 note=42 velocity=47 time=0\n",
      "note_on channel=9 note=42 velocity=0 time=65\n",
      "control_change channel=9 control=4 value=90 time=54\n",
      "note_on channel=9 note=38 velocity=49 time=0\n",
      "note_on channel=9 note=42 velocity=60 time=0\n",
      "note_on channel=9 note=38 velocity=0 time=64\n",
      "note_on channel=9 note=42 velocity=0 time=0\n",
      "control_change channel=9 control=4 value=90 time=47\n",
      "note_on channel=9 note=42 velocity=44 time=0\n",
      "note_on channel=9 note=42 velocity=0 time=65\n",
      "control_change channel=9 control=4 value=90 time=44\n",
      "note_on channel=9 note=42 velocity=42 time=0\n",
      "note_on channel=9 note=38 velocity=30 time=2\n",
      "note_on channel=9 note=42 velocity=0 time=63\n",
      "note_on channel=9 note=38 velocity=0 time=2\n",
      "note_on channel=9 note=36 velocity=31 time=33\n",
      "control_change channel=9 control=4 value=90 time=10\n",
      "note_on channel=9 note=42 velocity=45 time=0\n",
      "note_on channel=9 note=36 velocity=0 time=55\n",
      "note_on channel=9 note=42 velocity=0 time=10\n",
      "control_change channel=9 control=4 value=90 time=57\n",
      "note_on channel=9 note=42 velocity=36 time=0\n",
      "note_on channel=9 note=38 velocity=18 time=20\n",
      "note_on channel=9 note=42 velocity=0 time=46\n",
      "note_on channel=9 note=38 velocity=0 time=18\n",
      "control_change channel=9 control=4 value=90 time=38\n",
      "note_on channel=9 note=38 velocity=54 time=0\n",
      "note_on channel=9 note=42 velocity=45 time=0\n",
      "note_on channel=9 note=38 velocity=0 time=65\n",
      "note_on channel=9 note=42 velocity=0 time=1\n",
      "note_on channel=9 note=36 velocity=40 time=49\n",
      "control_change channel=9 control=4 value=90 time=17\n",
      "note_on channel=9 note=42 velocity=38 time=0\n",
      "note_on channel=9 note=36 velocity=0 time=48\n",
      "note_on channel=9 note=42 velocity=0 time=17\n",
      "control_change channel=9 control=4 value=90 time=45\n",
      "note_on channel=9 note=42 velocity=56 time=0\n",
      "note_on channel=9 note=42 velocity=0 time=65\n",
      "note_on channel=9 note=38 velocity=54 time=57\n",
      "control_change channel=9 control=4 value=90 time=3\n",
      "note_on channel=9 note=42 velocity=61 time=0\n",
      "note_on channel=9 note=38 velocity=0 time=61\n",
      "note_on channel=9 note=42 velocity=0 time=4\n",
      "control_change channel=9 control=4 value=90 time=60\n",
      "note_on channel=9 note=42 velocity=31 time=0\n",
      "note_on channel=9 note=42 velocity=0 time=65\n",
      "control_change channel=9 control=4 value=90 time=54\n",
      "note_on channel=9 note=42 velocity=38 time=0\n",
      "note_on channel=9 note=42 velocity=0 time=65\n",
      "control_change channel=9 control=4 value=90 time=57\n",
      "note_on channel=9 note=42 velocity=48 time=0\n",
      "note_on channel=9 note=36 velocity=36 time=7\n",
      "note_on channel=9 note=42 velocity=0 time=58\n",
      "note_on channel=9 note=36 velocity=0 time=7\n",
      "control_change channel=9 control=4 value=90 time=54\n",
      "note_on channel=9 note=42 velocity=14 time=0\n",
      "note_on channel=9 note=42 velocity=0 time=64\n",
      "note_on channel=9 note=38 velocity=64 time=55\n",
      "control_change channel=9 control=4 value=90 time=13\n",
      "note_on channel=9 note=42 velocity=40 time=0\n",
      "note_on channel=9 note=38 velocity=0 time=51\n",
      "note_on channel=9 note=42 velocity=0 time=14\n",
      "control_change channel=9 control=4 value=90 time=56\n",
      "note_on channel=9 note=42 velocity=25 time=0\n",
      "note_on channel=9 note=36 velocity=38 time=12\n",
      "note_on channel=9 note=42 velocity=0 time=54\n",
      "note_on channel=9 note=36 velocity=0 time=11\n",
      "control_change channel=9 control=4 value=90 time=33\n",
      "note_on channel=9 note=42 velocity=47 time=0\n",
      "note_on channel=9 note=42 velocity=0 time=65\n",
      "note_on channel=9 note=38 velocity=43 time=48\n",
      "control_change channel=9 control=4 value=90 time=3\n",
      "note_on channel=9 note=42 velocity=58 time=0\n",
      "note_on channel=9 note=38 velocity=0 time=62\n",
      "note_on channel=9 note=42 velocity=0 time=3\n",
      "control_change channel=9 control=4 value=90 time=58\n",
      "note_on channel=9 note=42 velocity=32 time=0\n",
      "note_on channel=9 note=42 velocity=0 time=65\n",
      "note_on channel=9 note=38 velocity=13 time=43\n",
      "control_change channel=9 control=4 value=90 time=7\n",
      "note_on channel=9 note=42 velocity=41 time=0\n",
      "note_on channel=9 note=38 velocity=0 time=58\n",
      "note_on channel=9 note=42 velocity=0 time=7\n",
      "note_on channel=9 note=36 velocity=29 time=42\n",
      "control_change channel=9 control=4 value=90 time=13\n",
      "note_on channel=9 note=42 velocity=46 time=0\n",
      "note_on channel=9 note=36 velocity=0 time=51\n",
      "note_on channel=9 note=42 velocity=0 time=14\n",
      "note_on channel=9 note=38 velocity=24 time=39\n",
      "control_change channel=9 control=4 value=90 time=16\n",
      "note_on channel=9 note=42 velocity=27 time=0\n",
      "note_on channel=9 note=38 velocity=0 time=48\n",
      "note_on channel=9 note=42 velocity=0 time=17\n",
      "note_on channel=9 note=38 velocity=48 time=39\n",
      "control_change channel=9 control=4 value=90 time=9\n",
      "note_on channel=9 note=42 velocity=40 time=0\n",
      "control_change channel=9 control=4 value=86 time=30\n",
      "note_on channel=9 note=38 velocity=0 time=26\n",
      "control_change channel=9 control=4 value=82 time=4\n",
      "note_on channel=9 note=42 velocity=0 time=5\n",
      "control_change channel=9 control=4 value=77 time=25\n",
      "control_change channel=9 control=4 value=73 time=25\n",
      "control_change channel=9 control=4 value=60 time=15\n",
      "note_on channel=9 note=46 velocity=55 time=0\n",
      "note_on channel=9 note=36 velocity=35 time=1\n",
      "control_change channel=9 control=4 value=47 time=14\n",
      "control_change channel=9 control=4 value=42 time=4\n",
      "control_change channel=9 control=4 value=23 time=15\n",
      "control_change channel=9 control=4 value=4 time=15\n",
      "control_change channel=9 control=4 value=0 time=3\n",
      "note_on channel=9 note=46 velocity=0 time=12\n",
      "note_on channel=9 note=36 velocity=0 time=2\n",
      "control_change channel=9 control=4 value=17 time=1\n",
      "control_change channel=9 control=4 value=35 time=15\n",
      "control_change channel=9 control=4 value=53 time=15\n",
      "note_on channel=9 note=44 velocity=67 time=11\n",
      "control_change channel=9 control=4 value=71 time=4\n",
      "control_change channel=9 control=4 value=88 time=15\n",
      "note_on channel=9 note=42 velocity=38 time=0\n",
      "control_change channel=9 control=4 value=90 time=1\n",
      "note_on channel=9 note=44 velocity=0 time=45\n",
      "note_on channel=9 note=42 velocity=0 time=19\n",
      "control_change channel=9 control=4 value=90 time=50\n",
      "note_on channel=9 note=38 velocity=51 time=0\n",
      "note_on channel=9 note=42 velocity=55 time=0\n",
      "note_on channel=9 note=38 velocity=0 time=65\n",
      "note_on channel=9 note=42 velocity=0 time=0\n",
      "control_change channel=9 control=4 value=90 time=58\n",
      "note_on channel=9 note=42 velocity=23 time=0\n",
      "note_on channel=9 note=42 velocity=0 time=65\n",
      "control_change channel=9 control=4 value=90 time=45\n",
      "note_on channel=9 note=42 velocity=26 time=0\n",
      "note_on channel=9 note=38 velocity=16 time=13\n",
      "note_on channel=9 note=42 velocity=0 time=52\n",
      "note_on channel=9 note=38 velocity=0 time=12\n",
      "control_change channel=9 control=4 value=90 time=44\n",
      "note_on channel=9 note=42 velocity=47 time=0\n",
      "note_on channel=9 note=36 velocity=34 time=2\n",
      "note_on channel=9 note=42 velocity=0 time=63\n",
      "note_on channel=9 note=36 velocity=0 time=2\n",
      "control_change channel=9 control=4 value=90 time=52\n",
      "note_on channel=9 note=42 velocity=25 time=0\n",
      "note_on channel=9 note=42 velocity=0 time=65\n",
      "note_on channel=9 note=37 velocity=64 time=52\n",
      "control_change channel=9 control=4 value=90 time=8\n",
      "note_on channel=9 note=42 velocity=22 time=0\n",
      "note_on channel=9 note=37 velocity=0 time=56\n",
      "note_on channel=9 note=42 velocity=0 time=9\n",
      "control_change channel=9 control=4 value=90 time=58\n",
      "note_on channel=9 note=42 velocity=26 time=0\n",
      "note_on channel=9 note=36 velocity=37 time=15\n",
      "note_on channel=9 note=42 velocity=0 time=50\n",
      "note_on channel=9 note=36 velocity=0 time=14\n",
      "control_change channel=9 control=4 value=90 time=33\n",
      "note_on channel=9 note=42 velocity=51 time=0\n",
      "note_on channel=9 note=42 velocity=0 time=65\n",
      "note_on channel=9 note=38 velocity=29 time=58\n",
      "control_change channel=9 control=4 value=90 time=1\n",
      "note_on channel=9 note=42 velocity=47 time=0\n",
      "note_on channel=9 note=38 velocity=0 time=63\n",
      "note_on channel=9 note=42 velocity=0 time=2\n",
      "control_change channel=9 control=4 value=90 time=59\n",
      "note_on channel=9 note=42 velocity=42 time=0\n",
      "note_on channel=9 note=42 velocity=0 time=65\n",
      "note_on channel=9 note=38 velocity=21 time=53\n",
      "control_change channel=9 control=4 value=90 time=5\n",
      "note_on channel=9 note=42 velocity=41 time=0\n",
      "note_on channel=9 note=38 velocity=0 time=60\n",
      "note_on channel=9 note=42 velocity=0 time=5\n",
      "note_on channel=9 note=36 velocity=36 time=35\n",
      "control_change channel=9 control=4 value=90 time=16\n",
      "note_on channel=9 note=42 velocity=36 time=0\n",
      "note_on channel=9 note=36 velocity=0 time=49\n",
      "note_on channel=9 note=42 velocity=0 time=16\n",
      "note_on channel=9 note=38 velocity=15 time=43\n",
      "control_change channel=9 control=4 value=90 time=17\n",
      "note_on channel=9 note=42 velocity=25 time=0\n",
      "note_on channel=9 note=38 velocity=0 time=48\n",
      "note_on channel=9 note=42 velocity=0 time=17\n",
      "note_on channel=9 note=38 velocity=67 time=44\n",
      "control_change channel=9 control=4 value=90 time=9\n",
      "note_on channel=9 note=42 velocity=39 time=0\n",
      "note_on channel=9 note=38 velocity=0 time=56\n",
      "note_on channel=9 note=42 velocity=0 time=9\n",
      "note_on channel=9 note=36 velocity=40 time=53\n",
      "control_change channel=9 control=4 value=90 time=6\n",
      "note_on channel=9 note=42 velocity=29 time=0\n",
      "note_on channel=9 note=36 velocity=0 time=59\n",
      "note_on channel=9 note=42 velocity=0 time=6\n",
      "control_change channel=9 control=4 value=90 time=36\n",
      "note_on channel=9 note=42 velocity=46 time=0\n",
      "note_on channel=9 note=42 velocity=0 time=65\n",
      "note_on channel=9 note=38 velocity=30 time=52\n",
      "control_change channel=9 control=4 value=90 time=10\n",
      "note_on channel=9 note=42 velocity=48 time=0\n",
      "note_on channel=9 note=38 velocity=0 time=55\n",
      "note_on channel=9 note=42 velocity=0 time=10\n",
      "control_change channel=9 control=4 value=90 time=57\n",
      "note_on channel=9 note=42 velocity=43 time=0\n",
      "note_on channel=9 note=42 velocity=0 time=65\n",
      "control_change channel=9 control=4 value=90 time=58\n",
      "note_on channel=9 note=42 velocity=43 time=0\n",
      "note_on channel=9 note=38 velocity=10 time=17\n",
      "note_on channel=9 note=42 velocity=0 time=48\n",
      "note_on channel=9 note=38 velocity=0 time=17\n",
      "control_change channel=9 control=4 value=90 time=32\n",
      "note_on channel=9 note=36 velocity=42 time=0\n",
      "note_on channel=9 note=42 velocity=48 time=0\n",
      "note_on channel=9 note=36 velocity=0 time=64\n",
      "note_on channel=9 note=42 velocity=0 time=0\n",
      "control_change channel=9 control=4 value=90 time=53\n",
      "note_on channel=9 note=42 velocity=29 time=0\n",
      "note_on channel=9 note=42 velocity=0 time=65\n",
      "note_on channel=9 note=38 velocity=69 time=54\n",
      "control_change channel=9 control=4 value=90 time=8\n",
      "note_on channel=9 note=42 velocity=49 time=0\n",
      "note_on channel=9 note=38 velocity=0 time=57\n",
      "note_on channel=9 note=42 velocity=0 time=8\n",
      "control_change channel=9 control=4 value=90 time=55\n",
      "note_on channel=9 note=36 velocity=44 time=0\n",
      "note_on channel=9 note=42 velocity=29 time=0\n",
      "note_on channel=9 note=36 velocity=0 time=65\n",
      "note_on channel=9 note=42 velocity=0 time=0\n",
      "control_change channel=9 control=4 value=90 time=54\n",
      "note_on channel=9 note=42 velocity=28 time=0\n",
      "note_on channel=9 note=42 velocity=0 time=65\n",
      "control_change channel=9 control=4 value=90 time=55\n",
      "note_on channel=9 note=42 velocity=41 time=0\n",
      "note_on channel=9 note=38 velocity=57 time=4\n",
      "note_on channel=9 note=42 velocity=0 time=61\n",
      "note_on channel=9 note=38 velocity=0 time=4\n",
      "control_change channel=9 control=4 value=90 time=45\n",
      "note_on channel=9 note=42 velocity=36 time=0\n",
      "note_on channel=9 note=42 velocity=0 time=65\n",
      "control_change channel=9 control=4 value=90 time=55\n",
      "note_on channel=9 note=42 velocity=48 time=0\n",
      "note_on channel=9 note=38 velocity=15 time=13\n",
      "note_on channel=9 note=42 velocity=0 time=53\n",
      "note_on channel=9 note=38 velocity=0 time=11\n",
      "control_change channel=9 control=4 value=90 time=46\n",
      "note_on channel=9 note=42 velocity=43 time=0\n",
      "note_on channel=9 note=38 velocity=34 time=1\n",
      "note_on channel=9 note=42 velocity=0 time=63\n",
      "note_on channel=9 note=38 velocity=0 time=1\n",
      "control_change channel=9 control=4 value=90 time=48\n",
      "note_on channel=9 note=42 velocity=31 time=0\n",
      "note_on channel=9 note=38 velocity=33 time=2\n",
      "note_on channel=9 note=42 velocity=0 time=63\n",
      "note_on channel=9 note=38 velocity=0 time=1\n",
      "control_change channel=9 control=4 value=90 time=57\n",
      "note_on channel=9 note=37 velocity=71 time=0\n",
      "note_on channel=9 note=42 velocity=42 time=0\n",
      "note_on channel=9 note=38 velocity=43 time=26\n",
      "note_on channel=9 note=37 velocity=0 time=39\n",
      "note_on channel=9 note=42 velocity=0 time=0\n",
      "note_on channel=9 note=38 velocity=0 time=26\n",
      "note_on channel=9 note=36 velocity=41 time=30\n",
      "control_change channel=9 control=4 value=90 time=7\n",
      "note_on channel=9 note=42 velocity=32 time=0\n",
      "note_on channel=9 note=36 velocity=0 time=57\n",
      "note_on channel=9 note=42 velocity=0 time=9\n",
      "control_change channel=9 control=4 value=90 time=49\n",
      "note_on channel=9 note=42 velocity=48 time=0\n",
      "note_on channel=9 note=42 velocity=0 time=65\n",
      "control_change channel=9 control=4 value=90 time=55\n",
      "note_on channel=9 note=42 velocity=32 time=0\n",
      "note_on channel=9 note=36 velocity=23 time=5\n",
      "control_change channel=9 control=4 value=87 time=25\n",
      "control_change channel=9 control=4 value=83 time=30\n",
      "note_on channel=9 note=42 velocity=0 time=6\n",
      "note_on channel=9 note=36 velocity=0 time=3\n",
      "control_change channel=9 control=4 value=80 time=21\n",
      "control_change channel=9 control=4 value=78 time=12\n",
      "control_change channel=9 control=4 value=62 time=15\n",
      "note_on channel=9 note=36 velocity=56 time=3\n",
      "note_on channel=9 note=26 velocity=66 time=6\n",
      "control_change channel=9 control=4 value=45 time=6\n",
      "control_change channel=9 control=4 value=40 time=4\n",
      "control_change channel=9 control=4 value=33 time=15\n",
      "control_change channel=9 control=4 value=26 time=15\n",
      "control_change channel=9 control=4 value=21 time=8\n",
      "note_on channel=9 note=36 velocity=0 time=11\n",
      "note_on channel=9 note=26 velocity=0 time=5\n",
      "control_change channel=9 control=4 value=17 time=14\n",
      "control_change channel=9 control=4 value=13 time=30\n",
      "control_change channel=9 control=4 value=11 time=8\n",
      "control_change channel=9 control=4 value=12 time=30\n",
      "control_change channel=9 control=4 value=14 time=30\n",
      "control_change channel=9 control=4 value=16 time=30\n",
      "control_change channel=9 control=4 value=18 time=17\n",
      "note_on channel=9 note=44 velocity=45 time=12\n",
      "control_change channel=9 control=4 value=50 time=3\n",
      "note_on channel=9 note=42 velocity=30 time=8\n",
      "control_change channel=9 control=4 value=83 time=7\n",
      "control_change channel=9 control=4 value=90 time=3\n",
      "note_on channel=9 note=44 velocity=0 time=44\n",
      "note_on channel=9 note=42 velocity=0 time=11\n",
      "control_change channel=9 control=4 value=90 time=48\n",
      "note_on channel=9 note=42 velocity=24 time=0\n",
      "note_on channel=9 note=42 velocity=0 time=65\n",
      "note_on channel=9 note=38 velocity=77 time=51\n",
      "control_change channel=9 control=4 value=90 time=12\n",
      "note_on channel=9 note=42 velocity=41 time=0\n",
      "note_on channel=9 note=38 velocity=0 time=52\n",
      "note_on channel=9 note=42 velocity=0 time=13\n",
      "note_on channel=9 note=36 velocity=49 time=50\n",
      "control_change channel=9 control=4 value=90 time=10\n",
      "note_on channel=9 note=42 velocity=23 time=0\n",
      "note_on channel=9 note=36 velocity=0 time=55\n",
      "note_on channel=9 note=42 velocity=0 time=10\n",
      "control_change channel=9 control=4 value=90 time=49\n",
      "note_on channel=9 note=42 velocity=46 time=0\n",
      "note_on channel=9 note=42 velocity=0 time=65\n",
      "note_on channel=9 note=38 velocity=57 time=45\n",
      "control_change channel=9 control=4 value=90 time=3\n",
      "note_on channel=9 note=42 velocity=32 time=0\n",
      "note_on channel=9 note=38 velocity=0 time=61\n",
      "note_on channel=9 note=42 velocity=0 time=4\n",
      "control_change channel=9 control=4 value=90 time=55\n",
      "note_on channel=9 note=42 velocity=18 time=0\n",
      "note_on channel=9 note=42 velocity=0 time=65\n",
      "control_change channel=9 control=4 value=90 time=45\n",
      "note_on channel=9 note=42 velocity=20 time=0\n",
      "note_on channel=9 note=42 velocity=0 time=65\n",
      "note_on channel=9 note=36 velocity=37 time=50\n",
      "control_change channel=9 control=4 value=90 time=2\n",
      "note_on channel=9 note=42 velocity=57 time=0\n",
      "note_on channel=9 note=36 velocity=0 time=63\n",
      "note_on channel=9 note=42 velocity=0 time=2\n",
      "control_change channel=9 control=4 value=90 time=54\n",
      "note_on channel=9 note=42 velocity=24 time=0\n",
      "note_on channel=9 note=42 velocity=0 time=65\n",
      "control_change channel=9 control=4 value=90 time=55\n",
      "note_on channel=9 note=42 velocity=57 time=0\n",
      "note_on channel=9 note=38 velocity=62 time=5\n",
      "note_on channel=9 note=42 velocity=0 time=60\n",
      "note_on channel=9 note=38 velocity=0 time=5\n",
      "control_change channel=9 control=4 value=90 time=55\n",
      "note_on channel=9 note=42 velocity=37 time=0\n",
      "note_on channel=9 note=36 velocity=44 time=8\n",
      "note_on channel=9 note=42 velocity=0 time=57\n",
      "note_on channel=9 note=36 velocity=0 time=8\n",
      "control_change channel=9 control=4 value=90 time=49\n",
      "note_on channel=9 note=42 velocity=48 time=0\n",
      "note_on channel=9 note=42 velocity=0 time=65\n",
      "note_on channel=9 note=38 velocity=62 time=52\n",
      "control_change channel=9 control=4 value=90 time=8\n",
      "note_on channel=9 note=42 velocity=38 time=0\n",
      "note_on channel=9 note=38 velocity=0 time=56\n",
      "note_on channel=9 note=42 velocity=0 time=9\n",
      "control_change channel=9 control=4 value=90 time=53\n",
      "note_on channel=9 note=42 velocity=31 time=0\n",
      "note_on channel=9 note=42 velocity=0 time=65\n",
      "control_change channel=9 control=4 value=90 time=40\n",
      "note_on channel=9 note=42 velocity=25 time=0\n",
      "note_on channel=9 note=42 velocity=0 time=65\n",
      "control_change channel=9 control=4 value=90 time=61\n",
      "note_on channel=9 note=42 velocity=57 time=0\n",
      "note_on channel=9 note=36 velocity=34 time=9\n",
      "note_on channel=9 note=42 velocity=0 time=56\n",
      "note_on channel=9 note=36 velocity=0 time=9\n",
      "control_change channel=9 control=4 value=90 time=47\n",
      "note_on channel=9 note=42 velocity=22 time=0\n",
      "note_on channel=9 note=42 velocity=0 time=65\n",
      "control_change channel=9 control=4 value=90 time=54\n",
      "note_on channel=9 note=42 velocity=61 time=0\n",
      "note_on channel=9 note=38 velocity=55 time=3\n",
      "note_on channel=9 note=42 velocity=0 time=62\n",
      "note_on channel=9 note=38 velocity=0 time=3\n",
      "control_change channel=9 control=4 value=90 time=57\n",
      "note_on channel=9 note=42 velocity=37 time=0\n",
      "note_on channel=9 note=36 velocity=33 time=5\n",
      "note_on channel=9 note=42 velocity=0 time=60\n",
      "note_on channel=9 note=36 velocity=0 time=5\n",
      "control_change channel=9 control=4 value=90 time=48\n",
      "note_on channel=9 note=42 velocity=58 time=0\n",
      "note_on channel=9 note=42 velocity=0 time=65\n",
      "note_on channel=9 note=38 velocity=64 time=53\n",
      "control_change channel=9 control=4 value=90 time=10\n",
      "note_on channel=9 note=42 velocity=51 time=0\n",
      "note_on channel=9 note=38 velocity=0 time=55\n",
      "note_on channel=9 note=42 velocity=0 time=10\n",
      "control_change channel=9 control=4 value=90 time=49\n",
      "note_on channel=9 note=42 velocity=49 time=0\n",
      "note_on channel=9 note=42 velocity=0 time=65\n",
      "control_change channel=9 control=4 value=90 time=50\n",
      "note_on channel=9 note=42 velocity=36 time=0\n",
      "note_on channel=9 note=42 velocity=0 time=64\n",
      "control_change channel=9 control=4 value=90 time=58\n",
      "note_on channel=9 note=42 velocity=62 time=0\n",
      "note_on channel=9 note=36 velocity=27 time=7\n",
      "note_on channel=9 note=42 velocity=0 time=58\n",
      "note_on channel=9 note=36 velocity=0 time=7\n",
      "control_change channel=9 control=4 value=90 time=52\n",
      "note_on channel=9 note=42 velocity=44 time=0\n",
      "note_on channel=9 note=42 velocity=0 time=65\n",
      "note_on channel=9 note=38 velocity=54 time=55\n",
      "control_change channel=9 control=4 value=90 time=2\n",
      "note_on channel=9 note=42 velocity=49 time=0\n",
      "control_change channel=9 control=4 value=86 time=15\n",
      "control_change channel=9 control=4 value=82 time=15\n",
      "control_change channel=9 control=4 value=77 time=15\n",
      "control_change channel=9 control=4 value=73 time=15\n",
      "note_on channel=9 note=38 velocity=0 time=3\n",
      "note_on channel=9 note=42 velocity=0 time=2\n",
      "control_change channel=9 control=4 value=68 time=10\n",
      "control_change channel=9 control=4 value=64 time=15\n",
      "control_change channel=9 control=4 value=60 time=15\n",
      "control_change channel=9 control=4 value=55 time=15\n",
      "note_on channel=9 note=36 velocity=36 time=5\n",
      "note_on channel=9 note=46 velocity=44 time=7\n",
      "control_change channel=9 control=4 value=51 time=3\n",
      "control_change channel=9 control=4 value=49 time=5\n",
      "control_change channel=9 control=4 value=25 time=15\n",
      "control_change channel=9 control=4 value=0 time=15\n",
      "control_change channel=9 control=4 value=1 time=0\n",
      "control_change channel=9 control=4 value=16 time=15\n",
      "note_on channel=9 note=36 velocity=0 time=4\n",
      "note_on channel=9 note=46 velocity=0 time=7\n",
      "control_change channel=9 control=4 value=32 time=4\n",
      "control_change channel=9 control=4 value=48 time=15\n",
      "control_change channel=9 control=4 value=65 time=15\n",
      "note_on channel=9 note=44 velocity=75 time=3\n",
      "control_change channel=9 control=4 value=81 time=12\n",
      "note_on channel=9 note=42 velocity=44 time=4\n",
      "control_change channel=9 control=4 value=90 time=4\n",
      "note_on channel=9 note=44 velocity=0 time=44\n",
      "note_on channel=9 note=42 velocity=0 time=16\n",
      "control_change channel=9 control=4 value=90 time=54\n",
      "note_on channel=9 note=42 velocity=52 time=0\n",
      "note_on channel=9 note=38 velocity=64 time=2\n",
      "note_on channel=9 note=42 velocity=0 time=63\n",
      "note_on channel=9 note=38 velocity=0 time=1\n",
      "note_on channel=9 note=36 velocity=28 time=44\n",
      "control_change channel=9 control=4 value=90 time=11\n",
      "note_on channel=9 note=42 velocity=49 time=0\n",
      "note_on channel=9 note=36 velocity=0 time=53\n",
      "note_on channel=9 note=42 velocity=0 time=12\n",
      "control_change channel=9 control=4 value=90 time=44\n",
      "note_on channel=9 note=42 velocity=45 time=0\n",
      "note_on channel=9 note=38 velocity=8 time=45\n",
      "note_on channel=9 note=42 velocity=0 time=20\n",
      "note_on channel=9 note=38 velocity=0 time=45\n",
      "note_on channel=9 note=36 velocity=38 time=14\n",
      "control_change channel=9 control=4 value=90 time=2\n",
      "note_on channel=9 note=42 velocity=49 time=0\n",
      "note_on channel=9 note=36 velocity=0 time=63\n",
      "note_on channel=9 note=42 velocity=0 time=2\n",
      "control_change channel=9 control=4 value=90 time=45\n",
      "note_on channel=9 note=42 velocity=35 time=0\n",
      "note_on channel=9 note=42 velocity=0 time=65\n",
      "note_on channel=9 note=37 velocity=67 time=64\n",
      "control_change channel=9 control=4 value=90 time=4\n",
      "note_on channel=9 note=42 velocity=55 time=0\n",
      "note_on channel=9 note=37 velocity=0 time=60\n",
      "note_on channel=9 note=42 velocity=0 time=5\n",
      "control_change channel=9 control=4 value=90 time=57\n",
      "note_on channel=9 note=36 velocity=36 time=0\n",
      "note_on channel=9 note=42 velocity=36 time=0\n",
      "note_on channel=9 note=36 velocity=0 time=65\n",
      "note_on channel=9 note=42 velocity=0 time=0\n",
      "control_change channel=9 control=4 value=90 time=59\n",
      "note_on channel=9 note=42 velocity=60 time=0\n",
      "note_on channel=9 note=42 velocity=0 time=65\n",
      "note_on channel=9 note=38 velocity=33 time=47\n",
      "control_change channel=9 control=4 value=90 time=7\n",
      "note_on channel=9 note=42 velocity=39 time=0\n",
      "note_on channel=9 note=38 velocity=0 time=57\n",
      "note_on channel=9 note=42 velocity=0 time=8\n",
      "control_change channel=9 control=4 value=90 time=50\n",
      "note_on channel=9 note=42 velocity=58 time=0\n",
      "note_on channel=9 note=42 velocity=0 time=65\n",
      "note_on channel=9 note=38 velocity=21 time=42\n",
      "control_change channel=9 control=4 value=90 time=13\n",
      "note_on channel=9 note=42 velocity=36 time=0\n",
      "note_on channel=9 note=38 velocity=0 time=52\n",
      "note_on channel=9 note=42 velocity=0 time=13\n",
      "note_on channel=9 note=36 velocity=32 time=35\n",
      "control_change channel=9 control=4 value=90 time=18\n",
      "note_on channel=9 note=42 velocity=39 time=0\n",
      "note_on channel=9 note=36 velocity=0 time=47\n",
      "note_on channel=9 note=42 velocity=0 time=17\n",
      "note_on channel=9 note=38 velocity=11 time=43\n",
      "control_change channel=9 control=4 value=90 time=14\n",
      "note_on channel=9 note=42 velocity=29 time=0\n",
      "note_on channel=9 note=38 velocity=0 time=51\n",
      "note_on channel=9 note=42 velocity=0 time=14\n",
      "note_on channel=9 note=37 velocity=62 time=47\n",
      "control_change channel=9 control=4 value=90 time=5\n",
      "note_on channel=9 note=42 velocity=41 time=0\n",
      "control_change channel=9 control=4 value=87 time=30\n",
      "note_on channel=9 note=37 velocity=0 time=29\n",
      "control_change channel=9 control=4 value=84 time=1\n",
      "note_on channel=9 note=42 velocity=0 time=5\n",
      "control_change channel=9 control=4 value=82 time=10\n",
      "control_change channel=9 control=4 value=65 time=15\n",
      "control_change channel=9 control=4 value=48 time=15\n",
      "note_on channel=9 note=36 velocity=36 time=5\n",
      "control_change channel=9 control=4 value=26 time=10\n",
      "note_on channel=9 note=46 velocity=51 time=11\n",
      "control_change channel=9 control=4 value=4 time=4\n",
      "control_change channel=9 control=4 value=0 time=3\n",
      "control_change channel=9 control=4 value=16 time=15\n",
      "control_change channel=9 control=4 value=33 time=15\n",
      "note_on channel=9 note=36 velocity=0 time=6\n",
      "control_change channel=9 control=4 value=50 time=9\n",
      "note_on channel=9 note=46 velocity=0 time=12\n",
      "control_change channel=9 control=4 value=66 time=3\n",
      "control_change channel=9 control=4 value=83 time=15\n",
      "note_on channel=9 note=44 velocity=65 time=2\n",
      "control_change channel=9 control=4 value=90 time=4\n",
      "control_change channel=9 control=4 value=90 time=31\n",
      "note_on channel=9 note=42 velocity=38 time=0\n",
      "note_on channel=9 note=44 velocity=0 time=29\n",
      "note_on channel=9 note=42 velocity=0 time=36\n",
      "note_on channel=9 note=38 velocity=24 time=39\n",
      "control_change channel=9 control=4 value=90 time=6\n",
      "note_on channel=9 note=42 velocity=43 time=0\n",
      "note_on channel=9 note=38 velocity=0 time=58\n",
      "note_on channel=9 note=42 velocity=0 time=7\n",
      "note_on channel=9 note=36 velocity=33 time=36\n",
      "control_change channel=9 control=4 value=90 time=14\n",
      "note_on channel=9 note=42 velocity=38 time=0\n",
      "note_on channel=9 note=36 velocity=0 time=51\n",
      "note_on channel=9 note=42 velocity=0 time=14\n",
      "note_on channel=9 note=38 velocity=7 time=38\n",
      "control_change channel=9 control=4 value=90 time=10\n",
      "note_on channel=9 note=42 velocity=34 time=0\n",
      "note_on channel=9 note=38 velocity=0 time=54\n",
      "note_on channel=9 note=42 velocity=0 time=11\n",
      "note_on channel=9 note=36 velocity=38 time=51\n",
      "control_change channel=9 control=4 value=90 time=5\n",
      "note_on channel=9 note=42 velocity=51 time=0\n",
      "note_on channel=9 note=36 velocity=0 time=60\n",
      "note_on channel=9 note=42 velocity=0 time=5\n",
      "note_on channel=9 note=38 velocity=12 time=60\n",
      "control_change channel=9 control=4 value=90 time=2\n",
      "note_on channel=9 note=42 velocity=29 time=0\n",
      "note_on channel=9 note=38 velocity=0 time=63\n",
      "note_on channel=9 note=42 velocity=0 time=2\n",
      "note_on channel=9 note=38 velocity=13 time=52\n",
      "control_change channel=9 control=4 value=90 time=9\n",
      "note_on channel=9 note=42 velocity=27 time=0\n",
      "note_on channel=9 note=38 velocity=0 time=56\n",
      "note_on channel=9 note=42 velocity=0 time=10\n",
      "control_change channel=9 control=4 value=90 time=46\n",
      "note_on channel=9 note=42 velocity=29 time=0\n",
      "note_on channel=9 note=38 velocity=21 time=9\n",
      "note_on channel=9 note=42 velocity=0 time=56\n",
      "note_on channel=9 note=38 velocity=0 time=8\n",
      "control_change channel=9 control=4 value=90 time=50\n",
      "note_on channel=9 note=42 velocity=49 time=0\n",
      "note_on channel=9 note=38 velocity=29 time=4\n",
      "note_on channel=9 note=42 velocity=0 time=61\n",
      "note_on channel=9 note=38 velocity=0 time=4\n",
      "control_change channel=9 control=4 value=90 time=52\n",
      "note_on channel=9 note=42 velocity=25 time=0\n",
      "note_on channel=9 note=38 velocity=18 time=5\n",
      "note_on channel=9 note=42 velocity=0 time=60\n",
      "note_on channel=9 note=38 velocity=0 time=4\n",
      "note_on channel=9 note=38 velocity=61 time=47\n",
      "control_change channel=9 control=4 value=90 time=1\n",
      "note_on channel=9 note=42 velocity=54 time=0\n",
      "note_on channel=9 note=38 velocity=0 time=64\n",
      "note_on channel=9 note=42 velocity=0 time=2\n",
      "control_change channel=9 control=4 value=90 time=45\n",
      "note_on channel=9 note=42 velocity=23 time=0\n",
      "note_on channel=9 note=42 velocity=0 time=65\n",
      "note_on channel=9 note=36 velocity=42 time=61\n",
      "control_change channel=9 control=4 value=90 time=5\n",
      "note_on channel=9 note=42 velocity=49 time=0\n",
      "note_on channel=9 note=36 velocity=0 time=59\n",
      "note_on channel=9 note=42 velocity=0 time=6\n",
      "control_change channel=9 control=4 value=90 time=48\n",
      "note_on channel=9 note=42 velocity=28 time=0\n",
      "note_on channel=9 note=42 velocity=0 time=65\n",
      "note_on channel=9 note=38 velocity=62 time=63\n",
      "control_change channel=9 control=4 value=90 time=11\n",
      "note_on channel=9 note=42 velocity=43 time=0\n",
      "note_on channel=9 note=38 velocity=0 time=54\n",
      "note_on channel=9 note=42 velocity=0 time=11\n",
      "note_on channel=9 note=36 velocity=44 time=46\n",
      "control_change channel=9 control=4 value=90 time=15\n",
      "note_on channel=9 note=42 velocity=35 time=0\n",
      "note_on channel=9 note=36 velocity=0 time=50\n",
      "note_on channel=9 note=42 velocity=0 time=14\n",
      "control_change channel=9 control=4 value=90 time=50\n",
      "note_on channel=9 note=42 velocity=53 time=0\n",
      "note_on channel=9 note=42 velocity=0 time=65\n",
      "note_on channel=9 note=38 velocity=31 time=49\n",
      "control_change channel=9 control=4 value=90 time=1\n",
      "note_on channel=9 note=42 velocity=38 time=0\n",
      "note_on channel=9 note=38 velocity=0 time=20\n",
      "note_on channel=9 note=38 velocity=23 time=0\n",
      "note_on channel=9 note=38 velocity=0 time=44\n",
      "note_on channel=9 note=42 velocity=0 time=1\n",
      "note_on channel=9 note=38 velocity=5 time=34\n",
      "note_on channel=9 note=36 velocity=43 time=13\n",
      "control_change channel=9 control=4 value=90 time=6\n",
      "note_on channel=9 note=42 velocity=48 time=0\n",
      "note_on channel=9 note=38 velocity=0 time=45\n",
      "note_on channel=9 note=36 velocity=0 time=14\n",
      "note_on channel=9 note=42 velocity=0 time=6\n",
      "note_on channel=9 note=38 velocity=13 time=42\n",
      "control_change channel=9 control=4 value=90 time=7\n",
      "note_on channel=9 note=42 velocity=37 time=0\n",
      "note_on channel=9 note=38 velocity=0 time=58\n",
      "note_on channel=9 note=42 velocity=0 time=7\n",
      "note_on channel=9 note=36 velocity=41 time=53\n",
      "control_change channel=9 control=4 value=90 time=10\n",
      "note_on channel=9 note=42 velocity=43 time=0\n",
      "note_on channel=9 note=36 velocity=0 time=55\n",
      "note_on channel=9 note=42 velocity=0 time=10\n",
      "control_change channel=9 control=4 value=90 time=47\n",
      "note_on channel=9 note=42 velocity=31 time=0\n",
      "note_on channel=9 note=42 velocity=0 time=65\n",
      "note_on channel=9 note=37 velocity=68 time=60\n",
      "control_change channel=9 control=4 value=90 time=6\n",
      "note_on channel=9 note=42 velocity=53 time=0\n",
      "note_on channel=9 note=38 velocity=38 time=20\n",
      "note_on channel=9 note=37 velocity=0 time=39\n",
      "note_on channel=9 note=42 velocity=0 time=5\n",
      "note_on channel=9 note=38 velocity=0 time=20\n",
      "control_change channel=9 control=4 value=90 time=35\n",
      "note_on channel=9 note=42 velocity=30 time=0\n",
      "note_on channel=9 note=42 velocity=0 time=64\n",
      "control_change channel=9 control=4 value=90 time=51\n",
      "note_on channel=9 note=42 velocity=67 time=0\n",
      "note_on channel=9 note=42 velocity=0 time=65\n",
      "control_change channel=9 control=4 value=90 time=50\n",
      "note_on channel=9 note=42 velocity=46 time=0\n",
      "note_on channel=9 note=38 velocity=26 time=5\n",
      "note_on channel=9 note=42 velocity=0 time=60\n",
      "note_on channel=9 note=38 velocity=0 time=4\n",
      "control_change channel=9 control=4 value=90 time=54\n",
      "note_on channel=9 note=42 velocity=58 time=0\n",
      "note_on channel=9 note=42 velocity=0 time=65\n",
      "note_on channel=9 note=38 velocity=23 time=48\n",
      "control_change channel=9 control=4 value=90 time=3\n",
      "note_on channel=9 note=42 velocity=38 time=0\n",
      "note_on channel=9 note=38 velocity=0 time=61\n",
      "note_on channel=9 note=42 velocity=0 time=4\n",
      "note_on channel=9 note=36 velocity=36 time=42\n",
      "control_change channel=9 control=4 value=90 time=21\n",
      "note_on channel=9 note=42 velocity=41 time=0\n",
      "note_on channel=9 note=36 velocity=0 time=44\n",
      "note_on channel=9 note=42 velocity=0 time=21\n",
      "control_change channel=9 control=4 value=90 time=51\n",
      "note_on channel=9 note=42 velocity=43 time=0\n",
      "note_on channel=9 note=38 velocity=11 time=31\n",
      "note_on channel=9 note=42 velocity=0 time=34\n",
      "note_on channel=9 note=38 velocity=0 time=31\n",
      "control_change channel=9 control=4 value=90 time=24\n",
      "note_on channel=9 note=38 velocity=50 time=0\n",
      "note_on channel=9 note=42 velocity=60 time=0\n",
      "note_on channel=9 note=38 velocity=0 time=65\n",
      "note_on channel=9 note=42 velocity=0 time=0\n",
      "note_on channel=9 note=36 velocity=41 time=53\n",
      "control_change channel=9 control=4 value=90 time=8\n",
      "note_on channel=9 note=42 velocity=46 time=0\n",
      "note_on channel=9 note=36 velocity=0 time=57\n",
      "note_on channel=9 note=42 velocity=0 time=8\n",
      "control_change channel=9 control=4 value=90 time=49\n",
      "note_on channel=9 note=42 velocity=83 time=0\n",
      "note_on channel=9 note=42 velocity=0 time=65\n",
      "note_on channel=9 note=38 velocity=40 time=47\n",
      "control_change channel=9 control=4 value=90 time=12\n",
      "note_on channel=9 note=42 velocity=46 time=0\n",
      "note_on channel=9 note=38 velocity=0 time=12\n",
      "note_on channel=9 note=38 velocity=30 time=0\n",
      "note_on channel=9 note=38 velocity=0 time=18\n",
      "note_on channel=9 note=38 velocity=36 time=0\n",
      "note_on channel=9 note=38 velocity=0 time=22\n",
      "note_on channel=9 note=42 velocity=0 time=12\n",
      "note_on channel=9 note=36 velocity=40 time=33\n",
      "control_change channel=9 control=4 value=90 time=20\n",
      "note_on channel=9 note=42 velocity=41 time=0\n",
      "note_on channel=9 note=36 velocity=0 time=44\n",
      "note_on channel=9 note=42 velocity=0 time=20\n",
      "control_change channel=9 control=4 value=90 time=39\n",
      "note_on channel=9 note=42 velocity=24 time=0\n",
      "note_on channel=9 note=38 velocity=13 time=6\n",
      "note_on channel=9 note=42 velocity=0 time=59\n",
      "note_on channel=9 note=38 velocity=0 time=6\n",
      "note_on channel=9 note=36 velocity=40 time=47\n",
      "control_change channel=9 control=4 value=90 time=1\n",
      "note_on channel=9 note=42 velocity=59 time=0\n",
      "note_on channel=9 note=36 velocity=0 time=64\n",
      "note_on channel=9 note=42 velocity=0 time=0\n",
      "control_change channel=9 control=4 value=90 time=56\n",
      "note_on channel=9 note=42 velocity=31 time=0\n",
      "note_on channel=9 note=42 velocity=0 time=65\n",
      "control_change channel=9 control=4 value=90 time=65\n",
      "note_on channel=9 note=42 velocity=54 time=0\n",
      "note_on channel=9 note=37 velocity=67 time=1\n",
      "note_on channel=9 note=37 velocity=0 time=64\n",
      "note_on channel=9 note=42 velocity=0 time=0\n",
      "control_change channel=9 control=4 value=90 time=49\n",
      "note_on channel=9 note=42 velocity=34 time=0\n",
      "note_on channel=9 note=42 velocity=0 time=65\n",
      "control_change channel=9 control=4 value=90 time=57\n",
      "note_on channel=9 note=42 velocity=78 time=0\n",
      "note_on channel=9 note=42 velocity=0 time=65\n",
      "note_on channel=9 note=38 velocity=24 time=51\n",
      "control_change channel=9 control=4 value=90 time=5\n",
      "note_on channel=9 note=42 velocity=40 time=0\n",
      "note_on channel=9 note=38 velocity=0 time=59\n",
      "note_on channel=9 note=42 velocity=0 time=6\n",
      "control_change channel=9 control=4 value=90 time=55\n",
      "note_on channel=9 note=42 velocity=64 time=0\n",
      "note_on channel=9 note=42 velocity=0 time=65\n",
      "note_on channel=9 note=38 velocity=17 time=43\n",
      "control_change channel=9 control=4 value=90 time=14\n",
      "note_on channel=9 note=42 velocity=36 time=0\n",
      "note_on channel=9 note=38 velocity=0 time=50\n",
      "note_on channel=9 note=42 velocity=0 time=15\n",
      "note_on channel=9 note=36 velocity=33 time=30\n",
      "control_change channel=9 control=4 value=90 time=26\n",
      "note_on channel=9 note=42 velocity=47 time=0\n",
      "note_on channel=9 note=36 velocity=0 time=39\n",
      "note_on channel=9 note=42 velocity=0 time=26\n",
      "note_on channel=9 note=38 velocity=12 time=50\n",
      "control_change channel=9 control=4 value=90 time=2\n",
      "note_on channel=9 note=42 velocity=36 time=0\n",
      "note_on channel=9 note=38 velocity=0 time=62\n",
      "note_on channel=9 note=42 velocity=0 time=3\n",
      "note_on channel=9 note=38 velocity=59 time=40\n",
      "control_change channel=9 control=4 value=90 time=16\n",
      "note_on channel=9 note=42 velocity=40 time=0\n",
      "control_change channel=9 control=4 value=86 time=15\n",
      "control_change channel=9 control=4 value=82 time=15\n",
      "control_change channel=9 control=4 value=78 time=15\n",
      "note_on channel=9 note=38 velocity=0 time=4\n",
      "control_change channel=9 control=4 value=73 time=11\n",
      "note_on channel=9 note=42 velocity=0 time=5\n",
      "control_change channel=9 control=4 value=69 time=10\n",
      "control_change channel=9 control=4 value=65 time=15\n",
      "control_change channel=9 control=4 value=61 time=15\n",
      "control_change channel=9 control=4 value=56 time=14\n",
      "note_on channel=9 note=36 velocity=38 time=0\n",
      "note_on channel=9 note=46 velocity=61 time=0\n",
      "control_change channel=9 control=4 value=52 time=16\n",
      "control_change channel=9 control=4 value=51 time=2\n",
      "control_change channel=9 control=4 value=27 time=15\n",
      "control_change channel=9 control=4 value=2 time=15\n",
      "control_change channel=9 control=4 value=0 time=1\n",
      "control_change channel=9 control=4 value=16 time=15\n",
      "note_on channel=9 note=36 velocity=0 time=0\n",
      "note_on channel=9 note=46 velocity=0 time=0\n",
      "control_change channel=9 control=4 value=32 time=15\n",
      "control_change channel=9 control=4 value=49 time=15\n",
      "control_change channel=9 control=4 value=65 time=15\n",
      "note_on channel=9 note=44 velocity=65 time=3\n",
      "control_change channel=9 control=4 value=81 time=12\n",
      "note_on channel=9 note=42 velocity=37 time=0\n",
      "control_change channel=9 control=4 value=90 time=8\n",
      "note_on channel=9 note=44 velocity=0 time=44\n",
      "note_on channel=9 note=42 velocity=0 time=13\n",
      "note_on channel=9 note=38 velocity=27 time=42\n",
      "control_change channel=9 control=4 value=90 time=7\n",
      "note_on channel=9 note=42 velocity=51 time=0\n",
      "note_on channel=9 note=38 velocity=0 time=58\n",
      "note_on channel=9 note=42 velocity=0 time=7\n",
      "note_on channel=9 note=36 velocity=29 time=36\n",
      "control_change channel=9 control=4 value=90 time=23\n",
      "note_on channel=9 note=42 velocity=41 time=0\n",
      "note_on channel=9 note=36 velocity=0 time=42\n",
      "note_on channel=9 note=42 velocity=0 time=22\n",
      "note_on channel=9 note=38 velocity=15 time=47\n",
      "control_change channel=9 control=4 value=90 time=11\n",
      "note_on channel=9 note=42 velocity=33 time=0\n",
      "note_on channel=9 note=38 velocity=0 time=54\n",
      "note_on channel=9 note=42 velocity=0 time=11\n",
      "note_on channel=9 note=36 velocity=36 time=40\n",
      "control_change channel=9 control=4 value=90 time=9\n",
      "note_on channel=9 note=42 velocity=48 time=0\n",
      "note_on channel=9 note=36 velocity=0 time=56\n",
      "note_on channel=9 note=42 velocity=0 time=9\n",
      "control_change channel=9 control=4 value=90 time=55\n",
      "note_on channel=9 note=42 velocity=32 time=0\n",
      "note_on channel=9 note=38 velocity=8 time=7\n",
      "note_on channel=9 note=42 velocity=0 time=58\n",
      "note_on channel=9 note=38 velocity=0 time=6\n",
      "note_on channel=9 note=38 velocity=57 time=44\n",
      "control_change channel=9 control=4 value=90 time=7\n",
      "note_on channel=9 note=42 velocity=47 time=0\n",
      "note_on channel=9 note=38 velocity=0 time=58\n",
      "control_change channel=9 control=4 value=89 time=2\n",
      "note_on channel=9 note=42 velocity=0 time=5\n",
      "control_change channel=9 control=4 value=87 time=55\n",
      "control_change channel=9 control=4 value=86 time=6\n",
      "note_on channel=9 note=46 velocity=57 time=0\n",
      "note_on channel=9 note=36 velocity=38 time=8\n",
      "control_change channel=9 control=4 value=73 time=7\n",
      "control_change channel=9 control=4 value=59 time=15\n",
      "control_change channel=9 control=4 value=56 time=3\n",
      "control_change channel=9 control=4 value=33 time=15\n",
      "control_change channel=9 control=4 value=10 time=15\n",
      "note_on channel=9 note=46 velocity=0 time=2\n",
      "control_change channel=9 control=4 value=0 time=4\n",
      "note_on channel=9 note=36 velocity=0 time=4\n",
      "control_change channel=9 control=4 value=18 time=11\n",
      "control_change channel=9 control=4 value=36 time=15\n",
      "control_change channel=9 control=4 value=54 time=15\n",
      "note_on channel=9 note=44 velocity=70 time=9\n",
      "control_change channel=9 control=4 value=72 time=6\n",
      "control_change channel=9 control=4 value=90 time=14\n",
      "note_on channel=9 note=44 velocity=0 time=44\n",
      "note_on channel=9 note=38 velocity=41 time=37\n",
      "control_change channel=9 control=4 value=90 time=17\n",
      "note_on channel=9 note=42 velocity=57 time=0\n",
      "note_on channel=9 note=38 velocity=0 time=48\n",
      "note_on channel=9 note=42 velocity=0 time=17\n",
      "control_change channel=9 control=4 value=90 time=52\n",
      "note_on channel=9 note=42 velocity=49 time=0\n",
      "note_on channel=9 note=42 velocity=0 time=66\n",
      "note_on channel=9 note=38 velocity=5 time=39\n",
      "control_change channel=9 control=4 value=90 time=11\n",
      "note_on channel=9 note=42 velocity=49 time=0\n",
      "note_on channel=9 note=38 velocity=0 time=53\n",
      "note_on channel=9 note=42 velocity=0 time=12\n",
      "note_on channel=9 note=36 velocity=26 time=24\n",
      "control_change channel=9 control=4 value=90 time=30\n",
      "note_on channel=9 note=42 velocity=52 time=0\n",
      "note_on channel=9 note=36 velocity=0 time=35\n",
      "note_on channel=9 note=42 velocity=0 time=30\n",
      "note_on channel=9 note=38 velocity=11 time=54\n",
      "control_change channel=9 control=4 value=90 time=2\n",
      "note_on channel=9 note=42 velocity=40 time=0\n",
      "note_on channel=9 note=38 velocity=0 time=63\n",
      "note_on channel=9 note=42 velocity=0 time=2\n",
      "note_on channel=9 note=38 velocity=56 time=41\n",
      "control_change channel=9 control=4 value=90 time=18\n",
      "note_on channel=9 note=42 velocity=53 time=0\n",
      "control_change channel=9 control=4 value=87 time=30\n",
      "note_on channel=9 note=38 velocity=0 time=16\n",
      "control_change channel=9 control=4 value=83 time=14\n",
      "note_on channel=9 note=42 velocity=0 time=6\n",
      "control_change channel=9 control=4 value=80 time=24\n",
      "control_change channel=9 control=4 value=78 time=10\n",
      "note_on channel=9 note=36 velocity=43 time=1\n",
      "control_change channel=9 control=4 value=67 time=14\n",
      "note_on channel=9 note=46 velocity=53 time=9\n",
      "control_change channel=9 control=4 value=55 time=6\n",
      "control_change channel=9 control=4 value=51 time=4\n",
      "control_change channel=9 control=4 value=31 time=15\n",
      "control_change channel=9 control=4 value=10 time=15\n",
      "note_on channel=9 note=36 velocity=0 time=1\n",
      "control_change channel=9 control=4 value=0 time=5\n",
      "control_change channel=9 control=4 value=16 time=15\n",
      "note_on channel=9 note=46 velocity=0 time=3\n",
      "control_change channel=9 control=4 value=33 time=12\n",
      "control_change channel=9 control=4 value=50 time=15\n",
      "control_change channel=9 control=4 value=67 time=15\n",
      "note_on channel=9 note=44 velocity=55 time=0\n",
      "note_on channel=9 note=42 velocity=49 time=13\n",
      "control_change channel=9 control=4 value=84 time=2\n",
      "control_change channel=9 control=4 value=90 time=5\n",
      "note_on channel=9 note=44 velocity=0 time=45\n",
      "note_on channel=9 note=42 velocity=0 time=13\n",
      "note_on channel=9 note=38 velocity=58 time=34\n",
      "control_change channel=9 control=4 value=90 time=23\n",
      "note_on channel=9 note=42 velocity=61 time=0\n",
      "note_on channel=9 note=38 velocity=0 time=42\n",
      "note_on channel=9 note=42 velocity=0 time=23\n",
      "control_change channel=9 control=4 value=90 time=55\n",
      "note_on channel=9 note=42 velocity=49 time=0\n",
      "note_on channel=9 note=42 velocity=0 time=65\n",
      "control_change channel=9 control=4 value=90 time=46\n",
      "note_on channel=9 note=42 velocity=45 time=0\n",
      "note_on channel=9 note=42 velocity=0 time=65\n",
      "note_on channel=9 note=36 velocity=31 time=9\n",
      "control_change channel=9 control=4 value=90 time=46\n",
      "note_on channel=9 note=42 velocity=45 time=0\n",
      "note_on channel=9 note=36 velocity=0 time=18\n",
      "note_on channel=9 note=42 velocity=0 time=47\n",
      "note_on channel=9 note=38 velocity=8 time=34\n",
      "control_change channel=9 control=4 value=90 time=21\n",
      "note_on channel=9 note=42 velocity=44 time=0\n",
      "note_on channel=9 note=38 velocity=0 time=44\n",
      "note_on channel=9 note=42 velocity=0 time=21\n",
      "note_on channel=9 note=38 velocity=48 time=41\n",
      "control_change channel=9 control=4 value=90 time=11\n",
      "note_on channel=9 note=42 velocity=70 time=0\n",
      "control_change channel=9 control=4 value=86 time=30\n",
      "note_on channel=9 note=38 velocity=0 time=23\n",
      "control_change channel=9 control=4 value=82 time=7\n",
      "note_on channel=9 note=42 velocity=0 time=5\n",
      "control_change channel=9 control=4 value=78 time=19\n",
      "control_change channel=9 control=4 value=61 time=15\n",
      "note_on channel=9 note=36 velocity=35 time=0\n",
      "control_change channel=9 control=4 value=43 time=15\n",
      "note_on channel=9 note=46 velocity=52 time=12\n",
      "control_change channel=9 control=4 value=23 time=3\n",
      "control_change channel=9 control=4 value=2 time=15\n",
      "control_change channel=9 control=4 value=0 time=1\n",
      "control_change channel=9 control=4 value=6 time=15\n",
      "note_on channel=9 note=36 velocity=0 time=3\n",
      "control_change channel=9 control=4 value=13 time=12\n",
      "control_change channel=9 control=4 value=20 time=15\n",
      "note_on channel=9 note=46 velocity=0 time=1\n",
      "control_change channel=9 control=4 value=27 time=14\n",
      "control_change channel=9 control=4 value=32 time=11\n",
      "note_on channel=9 note=44 velocity=67 time=4\n",
      "control_change channel=9 control=4 value=60 time=11\n",
      "control_change channel=9 control=4 value=88 time=15\n",
      "control_change channel=9 control=4 value=90 time=1\n",
      "note_on channel=9 note=42 velocity=53 time=0\n",
      "note_on channel=9 note=44 velocity=0 time=38\n",
      "note_on channel=9 note=42 velocity=0 time=27\n",
      "note_on channel=9 note=38 velocity=63 time=44\n",
      "control_change channel=9 control=4 value=90 time=7\n",
      "note_on channel=9 note=42 velocity=67 time=0\n",
      "note_on channel=9 note=38 velocity=0 time=58\n",
      "note_on channel=9 note=42 velocity=0 time=7\n",
      "control_change channel=9 control=4 value=90 time=54\n",
      "note_on channel=9 note=42 velocity=44 time=0\n",
      "note_on channel=9 note=42 velocity=0 time=64\n",
      "note_on channel=9 note=38 velocity=21 time=35\n",
      "control_change channel=9 control=4 value=90 time=19\n",
      "note_on channel=9 note=42 velocity=40 time=0\n",
      "note_on channel=9 note=38 velocity=0 time=45\n",
      "note_on channel=9 note=42 velocity=0 time=20\n",
      "note_on channel=9 note=36 velocity=40 time=27\n",
      "control_change channel=9 control=4 value=90 time=28\n",
      "note_on channel=9 note=42 velocity=44 time=0\n",
      "note_on channel=9 note=36 velocity=0 time=37\n",
      "note_on channel=9 note=42 velocity=0 time=27\n",
      "note_on channel=9 note=38 velocity=16 time=52\n",
      "control_change channel=9 control=4 value=90 time=1\n",
      "note_on channel=9 note=42 velocity=32 time=0\n",
      "note_on channel=9 note=38 velocity=0 time=63\n",
      "note_on channel=9 note=42 velocity=0 time=2\n",
      "note_on channel=9 note=38 velocity=52 time=44\n",
      "control_change channel=9 control=4 value=90 time=13\n",
      "note_on channel=9 note=42 velocity=53 time=0\n",
      "control_change channel=9 control=4 value=87 time=15\n",
      "control_change channel=9 control=4 value=84 time=15\n",
      "control_change channel=9 control=4 value=81 time=15\n",
      "note_on channel=9 note=38 velocity=0 time=7\n",
      "control_change channel=9 control=4 value=78 time=8\n",
      "note_on channel=9 note=42 velocity=0 time=5\n",
      "control_change channel=9 control=4 value=75 time=10\n",
      "control_change channel=9 control=4 value=72 time=15\n",
      "control_change channel=9 control=4 value=69 time=15\n",
      "control_change channel=9 control=4 value=68 time=1\n",
      "control_change channel=9 control=4 value=53 time=15\n",
      "note_on channel=9 note=46 velocity=65 time=1\n",
      "note_on channel=9 note=36 velocity=41 time=5\n",
      "control_change channel=9 control=4 value=38 time=9\n",
      "control_change channel=9 control=4 value=33 time=4\n",
      "control_change channel=9 control=4 value=18 time=15\n",
      "control_change channel=9 control=4 value=3 time=15\n",
      "control_change channel=9 control=4 value=0 time=3\n",
      "note_on channel=9 note=46 velocity=0 time=13\n",
      "control_change channel=9 control=4 value=16 time=2\n",
      "note_on channel=9 note=36 velocity=0 time=4\n",
      "control_change channel=9 control=4 value=32 time=11\n",
      "control_change channel=9 control=4 value=49 time=15\n",
      "control_change channel=9 control=4 value=65 time=15\n",
      "note_on channel=9 note=44 velocity=57 time=2\n",
      "note_on channel=9 note=42 velocity=46 time=8\n",
      "control_change channel=9 control=4 value=82 time=5\n",
      "control_change channel=9 control=4 value=90 time=7\n",
      "note_on channel=9 note=44 velocity=0 time=45\n",
      "note_on channel=9 note=42 velocity=0 time=8\n",
      "note_on channel=9 note=38 velocity=44 time=48\n",
      "control_change channel=9 control=4 value=90 time=5\n",
      "note_on channel=9 note=42 velocity=58 time=0\n",
      "note_on channel=9 note=38 velocity=0 time=59\n",
      "note_on channel=9 note=42 velocity=0 time=6\n",
      "note_on channel=9 note=36 velocity=39 time=42\n",
      "control_change channel=9 control=4 value=90 time=16\n",
      "note_on channel=9 note=42 velocity=48 time=0\n",
      "note_on channel=9 note=36 velocity=0 time=48\n",
      "note_on channel=9 note=42 velocity=0 time=16\n",
      "control_change channel=9 control=4 value=90 time=58\n",
      "note_on channel=9 note=38 velocity=18 time=0\n",
      "note_on channel=9 note=42 velocity=43 time=0\n",
      "note_on channel=9 note=38 velocity=0 time=65\n",
      "note_on channel=9 note=42 velocity=0 time=0\n",
      "control_change channel=9 control=4 value=90 time=60\n",
      "note_on channel=9 note=42 velocity=46 time=0\n",
      "note_on channel=9 note=36 velocity=42 time=5\n",
      "note_on channel=9 note=38 velocity=15 time=5\n",
      "note_on channel=9 note=42 velocity=0 time=54\n",
      "note_on channel=9 note=36 velocity=0 time=5\n",
      "note_on channel=9 note=38 velocity=0 time=6\n",
      "control_change channel=9 control=4 value=90 time=39\n",
      "note_on channel=9 note=42 velocity=33 time=0\n",
      "note_on channel=9 note=42 velocity=0 time=66\n",
      "control_change channel=9 control=4 value=90 time=70\n",
      "note_on channel=9 note=42 velocity=71 time=0\n",
      "note_on channel=9 note=37 velocity=68 time=7\n",
      "note_on channel=9 note=42 velocity=0 time=58\n",
      "note_on channel=9 note=37 velocity=0 time=7\n",
      "control_change channel=9 control=4 value=90 time=56\n",
      "note_on channel=9 note=42 velocity=38 time=0\n",
      "note_on channel=9 note=42 velocity=0 time=65\n",
      "control_change channel=9 control=4 value=90 time=54\n",
      "note_on channel=9 note=42 velocity=70 time=0\n",
      "note_on channel=9 note=42 velocity=0 time=65\n",
      "note_on channel=9 note=38 velocity=20 time=53\n",
      "control_change channel=9 control=4 value=90 time=10\n",
      "note_on channel=9 note=42 velocity=40 time=0\n",
      "note_on channel=9 note=38 velocity=0 time=54\n",
      "note_on channel=9 note=42 velocity=0 time=11\n",
      "control_change channel=9 control=4 value=90 time=56\n",
      "note_on channel=9 note=42 velocity=67 time=0\n",
      "note_on channel=9 note=42 velocity=0 time=65\n",
      "note_on channel=9 note=38 velocity=25 time=36\n",
      "control_change channel=9 control=4 value=90 time=23\n",
      "note_on channel=9 note=42 velocity=43 time=0\n",
      "note_on channel=9 note=38 velocity=0 time=41\n",
      "note_on channel=9 note=42 velocity=0 time=24\n",
      "note_on channel=9 note=36 velocity=31 time=11\n",
      "control_change channel=9 control=4 value=90 time=36\n",
      "note_on channel=9 note=42 velocity=49 time=0\n",
      "note_on channel=9 note=36 velocity=0 time=29\n",
      "note_on channel=9 note=42 velocity=0 time=35\n",
      "control_change channel=9 control=4 value=90 time=48\n",
      "note_on channel=9 note=42 velocity=40 time=0\n",
      "note_on channel=9 note=42 velocity=0 time=65\n",
      "control_change channel=9 control=4 value=90 time=56\n",
      "note_on channel=9 note=42 velocity=90 time=0\n",
      "note_on channel=9 note=38 velocity=64 time=2\n",
      "note_on channel=9 note=42 velocity=0 time=63\n",
      "note_on channel=9 note=38 velocity=0 time=2\n",
      "note_on channel=9 note=36 velocity=39 time=64\n",
      "control_change channel=9 control=4 value=90 time=5\n",
      "note_on channel=9 note=42 velocity=39 time=0\n",
      "note_on channel=9 note=36 velocity=0 time=59\n",
      "note_on channel=9 note=42 velocity=0 time=6\n",
      "control_change channel=9 control=4 value=90 time=46\n",
      "note_on channel=9 note=42 velocity=63 time=0\n",
      "note_on channel=9 note=42 velocity=0 time=65\n",
      "note_on channel=9 note=38 velocity=25 time=47\n",
      "control_change channel=9 control=4 value=90 time=13\n",
      "note_on channel=9 note=42 velocity=53 time=0\n",
      "note_on channel=9 note=38 velocity=0 time=51\n",
      "note_on channel=9 note=42 velocity=0 time=14\n",
      "control_change channel=9 control=4 value=90 time=46\n",
      "note_on channel=9 note=42 velocity=57 time=0\n",
      "note_on channel=9 note=36 velocity=33 time=1\n",
      "note_on channel=9 note=42 velocity=0 time=63\n",
      "note_on channel=9 note=36 velocity=0 time=2\n",
      "note_on channel=9 note=38 velocity=28 time=40\n",
      "control_change channel=9 control=4 value=90 time=16\n",
      "note_on channel=9 note=42 velocity=45 time=0\n",
      "note_on channel=9 note=38 velocity=0 time=49\n",
      "note_on channel=9 note=42 velocity=0 time=16\n",
      "note_on channel=9 note=36 velocity=38 time=47\n",
      "control_change channel=9 control=4 value=90 time=1\n",
      "note_on channel=9 note=42 velocity=55 time=0\n",
      "note_on channel=9 note=36 velocity=0 time=64\n",
      "note_on channel=9 note=42 velocity=0 time=0\n",
      "note_on channel=9 note=38 velocity=17 time=47\n",
      "control_change channel=9 control=4 value=90 time=10\n",
      "note_on channel=9 note=42 velocity=35 time=0\n",
      "note_on channel=9 note=38 velocity=0 time=55\n",
      "note_on channel=9 note=42 velocity=0 time=10\n",
      "note_on channel=9 note=38 velocity=61 time=50\n",
      "control_change channel=9 control=4 value=90 time=2\n",
      "note_on channel=9 note=42 velocity=56 time=0\n",
      "control_change channel=9 control=4 value=89 time=30\n",
      "control_change channel=9 control=4 value=87 time=30\n",
      "note_on channel=9 note=38 velocity=0 time=2\n",
      "note_on channel=9 note=42 velocity=0 time=3\n",
      "control_change channel=9 control=4 value=85 time=25\n",
      "control_change channel=9 control=4 value=83 time=30\n",
      "control_change channel=9 control=4 value=82 time=4\n",
      "note_on channel=9 note=46 velocity=59 time=0\n",
      "control_change channel=9 control=4 value=66 time=15\n",
      "note_on channel=9 note=36 velocity=38 time=2\n",
      "control_change channel=9 control=4 value=49 time=13\n",
      "control_change channel=9 control=4 value=50 time=0\n",
      "control_change channel=9 control=4 value=26 time=15\n",
      "control_change channel=9 control=4 value=2 time=15\n",
      "control_change channel=9 control=4 value=0 time=1\n",
      "note_on channel=9 note=46 velocity=0 time=3\n",
      "control_change channel=9 control=4 value=18 time=12\n",
      "note_on channel=9 note=36 velocity=0 time=6\n",
      "control_change channel=9 control=4 value=36 time=9\n",
      "control_change channel=9 control=4 value=54 time=15\n",
      "note_on channel=9 note=44 velocity=67 time=10\n",
      "control_change channel=9 control=4 value=72 time=5\n",
      "note_on channel=9 note=42 velocity=56 time=0\n",
      "control_change channel=9 control=4 value=90 time=15\n",
      "note_on channel=9 note=44 velocity=0 time=44\n",
      "note_on channel=9 note=42 velocity=0 time=5\n",
      "note_on channel=9 note=38 velocity=59 time=43\n",
      "control_change channel=9 control=4 value=90 time=16\n",
      "note_on channel=9 note=42 velocity=68 time=0\n",
      "note_on channel=9 note=38 velocity=0 time=48\n",
      "note_on channel=9 note=42 velocity=0 time=17\n",
      "control_change channel=9 control=4 value=90 time=48\n",
      "note_on channel=9 note=42 velocity=44 time=0\n",
      "note_on channel=9 note=42 velocity=0 time=65\n",
      "note_on channel=9 note=38 velocity=21 time=40\n",
      "control_change channel=9 control=4 value=90 time=11\n",
      "note_on channel=9 note=42 velocity=57 time=0\n",
      "note_on channel=9 note=38 velocity=0 time=53\n",
      "note_on channel=9 note=42 velocity=0 time=12\n",
      "note_on channel=9 note=36 velocity=28 time=32\n",
      "control_change channel=9 control=4 value=90 time=12\n",
      "note_on channel=9 note=42 velocity=53 time=0\n",
      "note_on channel=9 note=36 velocity=0 time=53\n",
      "note_on channel=9 note=42 velocity=0 time=12\n",
      "control_change channel=9 control=4 value=90 time=57\n",
      "note_on channel=9 note=42 velocity=40 time=0\n",
      "note_on channel=9 note=42 velocity=0 time=65\n",
      "control_change channel=9 control=4 value=90 time=51\n",
      "note_on channel=9 note=42 velocity=49 time=0\n",
      "note_on channel=9 note=38 velocity=47 time=1\n",
      "control_change channel=9 control=4 value=87 time=29\n",
      "control_change channel=9 control=4 value=83 time=30\n",
      "note_on channel=9 note=42 velocity=0 time=4\n",
      "note_on channel=9 note=38 velocity=0 time=2\n",
      "control_change channel=9 control=4 value=79 time=24\n",
      "control_change channel=9 control=4 value=78 time=3\n",
      "control_change channel=9 control=4 value=65 time=15\n",
      "control_change channel=9 control=4 value=52 time=14\n",
      "note_on channel=9 note=46 velocity=71 time=0\n",
      "note_on channel=9 note=36 velocity=34 time=3\n",
      "control_change channel=9 control=4 value=44 time=6\n",
      "control_change channel=9 control=4 value=25 time=15\n",
      "control_change channel=9 control=4 value=6 time=15\n",
      "control_change channel=9 control=4 value=0 time=4\n",
      "control_change channel=9 control=4 value=15 time=15\n",
      "note_on channel=9 note=46 velocity=0 time=7\n",
      "note_on channel=9 note=36 velocity=0 time=3\n",
      "control_change channel=9 control=4 value=31 time=5\n",
      "control_change channel=9 control=4 value=47 time=15\n",
      "control_change channel=9 control=4 value=63 time=15\n",
      "note_on channel=9 note=44 velocity=62 time=4\n",
      "control_change channel=9 control=4 value=79 time=11\n",
      "control_change channel=9 control=4 value=90 time=9\n",
      "note_on channel=9 note=42 velocity=54 time=0\n",
      "note_on channel=9 note=44 velocity=0 time=45\n",
      "note_on channel=9 note=42 velocity=0 time=20\n",
      "note_on channel=9 note=38 velocity=47 time=39\n",
      "control_change channel=9 control=4 value=90 time=12\n",
      "note_on channel=9 note=42 velocity=61 time=0\n",
      "note_on channel=9 note=38 velocity=0 time=53\n",
      "note_on channel=9 note=42 velocity=0 time=12\n",
      "note_on channel=9 note=36 velocity=33 time=41\n",
      "control_change channel=9 control=4 value=90 time=17\n",
      "note_on channel=9 note=42 velocity=42 time=0\n",
      "note_on channel=9 note=36 velocity=0 time=47\n",
      "note_on channel=9 note=42 velocity=0 time=18\n",
      "control_change channel=9 control=4 value=90 time=43\n",
      "note_on channel=9 note=42 velocity=39 time=0\n",
      "note_on channel=9 note=38 velocity=10 time=2\n",
      "note_on channel=9 note=42 velocity=0 time=63\n",
      "note_on channel=9 note=38 velocity=0 time=2\n",
      "control_change channel=9 control=4 value=90 time=54\n",
      "note_on channel=9 note=42 velocity=52 time=0\n",
      "note_on channel=9 note=36 velocity=41 time=3\n",
      "note_on channel=9 note=42 velocity=0 time=62\n",
      "note_on channel=9 note=36 velocity=0 time=2\n",
      "control_change channel=9 control=4 value=90 time=59\n",
      "note_on channel=9 note=42 velocity=31 time=0\n",
      "note_on channel=9 note=42 velocity=0 time=65\n",
      "note_on channel=9 note=37 velocity=79 time=60\n",
      "control_change channel=9 control=4 value=90 time=2\n",
      "note_on channel=9 note=42 velocity=64 time=0\n",
      "note_on channel=9 note=37 velocity=0 time=63\n",
      "note_on channel=9 note=42 velocity=0 time=1\n",
      "control_change channel=9 control=4 value=90 time=61\n",
      "note_on channel=9 note=42 velocity=22 time=0\n",
      "note_on channel=9 note=42 velocity=0 time=64\n",
      "control_change channel=9 control=4 value=90 time=53\n",
      "note_on channel=9 note=42 velocity=66 time=0\n",
      "note_on channel=9 note=42 velocity=0 time=65\n",
      "note_on channel=9 note=38 velocity=20 time=42\n",
      "control_change channel=9 control=4 value=90 time=12\n",
      "note_on channel=9 note=42 velocity=54 time=0\n",
      "note_on channel=9 note=38 velocity=0 time=52\n",
      "note_on channel=9 note=42 velocity=0 time=13\n",
      "control_change channel=9 control=4 value=90 time=51\n",
      "note_on channel=9 note=42 velocity=50 time=0\n",
      "note_on channel=9 note=42 velocity=0 time=64\n",
      "note_on channel=9 note=38 velocity=23 time=32\n",
      "control_change channel=9 control=4 value=90 time=24\n",
      "note_on channel=9 note=42 velocity=48 time=0\n",
      "note_on channel=9 note=38 velocity=0 time=41\n",
      "note_on channel=9 note=42 velocity=0 time=24\n",
      "note_on channel=9 note=36 velocity=21 time=35\n",
      "note_on channel=9 note=38 velocity=14 time=10\n",
      "control_change channel=9 control=4 value=90 time=7\n",
      "note_on channel=9 note=42 velocity=49 time=0\n",
      "note_on channel=9 note=36 velocity=0 time=48\n",
      "note_on channel=9 note=38 velocity=0 time=10\n",
      "note_on channel=9 note=42 velocity=0 time=7\n",
      "control_change channel=9 control=4 value=90 time=47\n",
      "note_on channel=9 note=42 velocity=27 time=0\n",
      "note_on channel=9 note=36 velocity=35 time=5\n",
      "note_on channel=9 note=42 velocity=0 time=60\n",
      "note_on channel=9 note=36 velocity=0 time=4\n",
      "note_on channel=9 note=37 velocity=71 time=58\n",
      "control_change channel=9 control=4 value=90 time=5\n",
      "note_on channel=9 note=42 velocity=65 time=0\n",
      "note_on channel=9 note=37 velocity=0 time=59\n",
      "note_on channel=9 note=42 velocity=0 time=6\n",
      "control_change channel=9 control=4 value=90 time=50\n",
      "note_on channel=9 note=42 velocity=38 time=0\n",
      "note_on channel=9 note=42 velocity=0 time=65\n",
      "control_change channel=9 control=4 value=90 time=54\n",
      "note_on channel=9 note=42 velocity=83 time=0\n",
      "note_on channel=9 note=42 velocity=0 time=65\n",
      "note_on channel=9 note=38 velocity=29 time=47\n",
      "control_change channel=9 control=4 value=90 time=14\n",
      "note_on channel=9 note=42 velocity=48 time=0\n",
      "note_on channel=9 note=38 velocity=0 time=8\n",
      "note_on channel=9 note=38 velocity=30 time=0\n",
      "note_on channel=9 note=38 velocity=0 time=16\n",
      "note_on channel=9 note=38 velocity=26 time=0\n",
      "note_on channel=9 note=38 velocity=0 time=26\n",
      "note_on channel=9 note=42 velocity=0 time=15\n",
      "note_on channel=9 note=38 velocity=10 time=14\n",
      "note_on channel=9 note=38 velocity=0 time=10\n",
      "note_on channel=9 note=36 velocity=36 time=16\n",
      "control_change channel=9 control=4 value=90 time=18\n",
      "note_on channel=9 note=42 velocity=38 time=0\n",
      "note_on channel=9 note=36 velocity=0 time=47\n",
      "note_on channel=9 note=42 velocity=0 time=17\n",
      "control_change channel=9 control=4 value=90 time=49\n",
      "note_on channel=9 note=42 velocity=45 time=0\n",
      "note_on channel=9 note=38 velocity=27 time=2\n",
      "note_on channel=9 note=42 velocity=0 time=62\n",
      "note_on channel=9 note=38 velocity=0 time=3\n",
      "control_change channel=9 control=4 value=90 time=50\n",
      "note_on channel=9 note=42 velocity=55 time=0\n",
      "note_on channel=9 note=36 velocity=21 time=3\n",
      "note_on channel=9 note=42 velocity=0 time=62\n",
      "note_on channel=9 note=36 velocity=0 time=3\n",
      "control_change channel=9 control=4 value=90 time=42\n",
      "note_on channel=9 note=42 velocity=38 time=0\n",
      "note_on channel=9 note=36 velocity=35 time=26\n",
      "note_on channel=9 note=42 velocity=0 time=39\n",
      "note_on channel=9 note=36 velocity=0 time=26\n",
      "control_change channel=9 control=4 value=90 time=42\n",
      "note_on channel=9 note=42 velocity=49 time=0\n",
      "note_on channel=9 note=38 velocity=75 time=3\n",
      "note_on channel=9 note=42 velocity=0 time=62\n",
      "note_on channel=9 note=38 velocity=0 time=2\n",
      "control_change channel=9 control=4 value=90 time=45\n",
      "note_on channel=9 note=42 velocity=34 time=0\n",
      "note_on channel=9 note=42 velocity=0 time=65\n",
      "control_change channel=9 control=4 value=90 time=65\n",
      "note_on channel=9 note=42 velocity=73 time=0\n",
      "note_on channel=9 note=42 velocity=0 time=65\n",
      "control_change channel=9 control=4 value=90 time=56\n",
      "note_on channel=9 note=42 velocity=51 time=0\n",
      "note_on channel=9 note=38 velocity=22 time=5\n",
      "note_on channel=9 note=42 velocity=0 time=60\n",
      "note_on channel=9 note=38 velocity=0 time=5\n",
      "control_change channel=9 control=4 value=90 time=52\n",
      "note_on channel=9 note=42 velocity=64 time=0\n",
      "note_on channel=9 note=42 velocity=0 time=65\n",
      "note_on channel=9 note=38 velocity=24 time=52\n",
      "control_change channel=9 control=4 value=90 time=5\n",
      "note_on channel=9 note=42 velocity=41 time=0\n",
      "note_on channel=9 note=38 velocity=0 time=59\n",
      "note_on channel=9 note=42 velocity=0 time=6\n",
      "control_change channel=9 control=4 value=90 time=52\n",
      "note_on channel=9 note=42 velocity=52 time=0\n",
      "note_on channel=9 note=36 velocity=30 time=11\n",
      "note_on channel=9 note=42 velocity=0 time=54\n",
      "note_on channel=9 note=36 velocity=0 time=10\n",
      "control_change channel=9 control=4 value=90 time=46\n",
      "note_on channel=9 note=42 velocity=32 time=0\n",
      "note_on channel=9 note=36 velocity=34 time=13\n",
      "note_on channel=9 note=42 velocity=0 time=51\n",
      "note_on channel=9 note=36 velocity=0 time=13\n",
      "note_on channel=9 note=37 velocity=77 time=50\n",
      "control_change channel=9 control=4 value=90 time=3\n",
      "note_on channel=9 note=42 velocity=84 time=0\n",
      "note_on channel=9 note=37 velocity=0 time=61\n",
      "note_on channel=9 note=42 velocity=0 time=4\n",
      "control_change channel=9 control=4 value=90 time=60\n",
      "note_on channel=9 note=42 velocity=38 time=0\n",
      "note_on channel=9 note=42 velocity=0 time=64\n",
      "control_change channel=9 control=4 value=90 time=51\n",
      "note_on channel=9 note=42 velocity=83 time=0\n",
      "note_on channel=9 note=42 velocity=0 time=65\n",
      "note_on channel=9 note=38 velocity=15 time=44\n",
      "control_change channel=9 control=4 value=90 time=11\n",
      "note_on channel=9 note=42 velocity=46 time=0\n",
      "note_on channel=9 note=38 velocity=0 time=12\n",
      "note_on channel=9 note=38 velocity=11 time=0\n",
      "note_on channel=9 note=38 velocity=0 time=16\n",
      "note_on channel=9 note=38 velocity=12 time=0\n",
      "note_on channel=9 note=38 velocity=0 time=26\n",
      "note_on channel=9 note=38 velocity=8 time=1\n",
      "note_on channel=9 note=42 velocity=0 time=10\n",
      "note_on channel=9 note=38 velocity=0 time=11\n",
      "control_change channel=9 control=4 value=90 time=33\n",
      "note_on channel=9 note=36 velocity=37 time=0\n",
      "note_on channel=9 note=42 velocity=50 time=0\n",
      "note_on channel=9 note=36 velocity=0 time=65\n",
      "note_on channel=9 note=42 velocity=0 time=0\n",
      "note_on channel=9 note=38 velocity=15 time=41\n",
      "control_change channel=9 control=4 value=90 time=14\n",
      "note_on channel=9 note=42 velocity=32 time=0\n",
      "note_on channel=9 note=38 velocity=0 time=51\n",
      "note_on channel=9 note=42 velocity=0 time=14\n",
      "note_on channel=9 note=36 velocity=21 time=49\n",
      "control_change channel=9 control=4 value=90 time=11\n",
      "note_on channel=9 note=42 velocity=60 time=0\n",
      "note_on channel=9 note=36 velocity=0 time=54\n",
      "note_on channel=9 note=42 velocity=0 time=11\n",
      "note_on channel=9 note=36 velocity=29 time=36\n",
      "control_change channel=9 control=4 value=90 time=19\n",
      "note_on channel=9 note=42 velocity=40 time=0\n",
      "note_on channel=9 note=36 velocity=0 time=45\n",
      "note_on channel=9 note=42 velocity=0 time=21\n",
      "note_on channel=9 note=38 velocity=72 time=53\n",
      "control_change channel=9 control=4 value=90 time=3\n",
      "note_on channel=9 note=42 velocity=67 time=0\n",
      "note_on channel=9 note=38 velocity=0 time=61\n",
      "note_on channel=9 note=42 velocity=0 time=4\n",
      "control_change channel=9 control=4 value=90 time=53\n",
      "note_on channel=9 note=42 velocity=39 time=0\n",
      "note_on channel=9 note=42 velocity=0 time=65\n",
      "control_change channel=9 control=4 value=90 time=47\n",
      "note_on channel=9 note=42 velocity=63 time=0\n",
      "note_on channel=9 note=42 velocity=0 time=65\n",
      "note_on channel=9 note=38 velocity=22 time=53\n",
      "control_change channel=9 control=4 value=90 time=7\n",
      "note_on channel=9 note=42 velocity=51 time=0\n",
      "note_on channel=9 note=38 velocity=0 time=58\n",
      "note_on channel=9 note=42 velocity=0 time=7\n",
      "control_change channel=9 control=4 value=90 time=51\n",
      "note_on channel=9 note=42 velocity=64 time=0\n",
      "note_on channel=9 note=42 velocity=0 time=65\n",
      "note_on channel=9 note=38 velocity=19 time=53\n",
      "control_change channel=9 control=4 value=90 time=9\n",
      "note_on channel=9 note=42 velocity=51 time=0\n",
      "note_on channel=9 note=38 velocity=0 time=55\n",
      "note_on channel=9 note=42 velocity=0 time=10\n",
      "note_on channel=9 note=36 velocity=19 time=39\n",
      "control_change channel=9 control=4 value=90 time=12\n",
      "note_on channel=9 note=42 velocity=49 time=0\n",
      "note_on channel=9 note=38 velocity=14 time=2\n",
      "note_on channel=9 note=36 velocity=0 time=51\n",
      "note_on channel=9 note=42 velocity=0 time=12\n",
      "note_on channel=9 note=38 velocity=0 time=2\n",
      "note_on channel=9 note=36 velocity=38 time=47\n",
      "control_change channel=9 control=4 value=90 time=3\n",
      "note_on channel=9 note=42 velocity=46 time=0\n",
      "control_change channel=9 control=4 value=87 time=30\n",
      "control_change channel=9 control=4 value=83 time=30\n",
      "note_on channel=9 note=36 velocity=0 time=2\n",
      "note_on channel=9 note=42 velocity=0 time=3\n",
      "control_change channel=9 control=4 value=79 time=25\n",
      "control_change channel=9 control=4 value=78 time=4\n",
      "control_change channel=9 control=4 value=72 time=15\n",
      "note_on channel=9 note=38 velocity=68 time=13\n",
      "control_change channel=9 control=4 value=65 time=2\n",
      "control_change channel=9 control=4 value=61 time=7\n",
      "note_on channel=9 note=26 velocity=94 time=0\n",
      "control_change channel=9 control=4 value=56 time=30\n",
      "control_change channel=9 control=4 value=54 time=8\n",
      "control_change channel=9 control=4 value=43 time=15\n",
      "note_on channel=9 note=38 velocity=0 time=3\n",
      "note_on channel=9 note=26 velocity=0 time=8\n",
      "control_change channel=9 control=4 value=32 time=4\n",
      "control_change channel=9 control=4 value=30 time=2\n",
      "control_change channel=9 control=4 value=31 time=60\n",
      "control_change channel=9 control=4 value=32 time=60\n",
      "control_change channel=9 control=4 value=33 time=52\n",
      "note_on channel=9 note=26 velocity=108 time=0\n",
      "control_change channel=9 control=4 value=32 time=60\n",
      "note_on channel=9 note=26 velocity=0 time=5\n",
      "control_change channel=9 control=4 value=30 time=55\n",
      "control_change channel=9 control=4 value=28 time=49\n",
      "control_change channel=9 control=4 value=24 time=15\n",
      "control_change channel=9 control=4 value=20 time=15\n",
      "control_change channel=9 control=4 value=18 time=6\n",
      "control_change channel=9 control=4 value=25 time=15\n",
      "control_change channel=9 control=4 value=32 time=15\n",
      "control_change channel=9 control=4 value=33 time=1\n",
      "note_on channel=9 note=36 velocity=41 time=10\n",
      "note_on channel=9 note=44 velocity=32 time=0\n",
      "control_change channel=9 control=4 value=61 time=5\n",
      "note_on channel=9 note=42 velocity=50 time=7\n",
      "control_change channel=9 control=4 value=90 time=8\n",
      "note_on channel=9 note=36 velocity=0 time=44\n",
      "note_on channel=9 note=44 velocity=0 time=0\n",
      "note_on channel=9 note=42 velocity=0 time=12\n",
      "control_change channel=9 control=4 value=90 time=39\n",
      "note_on channel=9 note=42 velocity=40 time=0\n",
      "note_on channel=9 note=42 velocity=0 time=65\n",
      "control_change channel=9 control=4 value=90 time=60\n",
      "note_on channel=9 note=42 velocity=96 time=0\n",
      "note_on channel=9 note=42 velocity=0 time=65\n",
      "note_on channel=9 note=36 velocity=33 time=48\n",
      "control_change channel=9 control=4 value=90 time=9\n",
      "note_on channel=9 note=42 velocity=32 time=0\n",
      "note_on channel=9 note=36 velocity=0 time=55\n",
      "note_on channel=9 note=42 velocity=0 time=10\n",
      "note_on channel=9 note=38 velocity=69 time=53\n",
      "control_change channel=9 control=4 value=90 time=2\n",
      "note_on channel=9 note=42 velocity=93 time=0\n",
      "note_on channel=9 note=38 velocity=0 time=62\n",
      "note_on channel=9 note=42 velocity=0 time=3\n",
      "control_change channel=9 control=4 value=90 time=52\n",
      "note_on channel=9 note=42 velocity=36 time=0\n",
      "note_on channel=9 note=42 velocity=0 time=65\n",
      "control_change channel=9 control=4 value=90 time=53\n",
      "note_on channel=9 note=42 velocity=84 time=0\n",
      "note_on channel=9 note=42 velocity=0 time=65\n",
      "note_on channel=9 note=38 velocity=44 time=59\n",
      "control_change channel=9 control=4 value=90 time=1\n",
      "note_on channel=9 note=42 velocity=40 time=0\n",
      "note_on channel=9 note=38 velocity=0 time=63\n",
      "note_on channel=9 note=42 velocity=0 time=1\n",
      "control_change channel=9 control=4 value=90 time=55\n",
      "note_on channel=9 note=42 velocity=67 time=0\n",
      "note_on channel=9 note=42 velocity=0 time=65\n",
      "note_on channel=9 note=38 velocity=21 time=44\n",
      "control_change channel=9 control=4 value=90 time=14\n",
      "note_on channel=9 note=42 velocity=29 time=0\n",
      "note_on channel=9 note=38 velocity=0 time=51\n",
      "note_on channel=9 note=42 velocity=0 time=13\n",
      "note_on channel=9 note=36 velocity=22 time=43\n",
      "note_on channel=9 note=38 velocity=19 time=0\n",
      "control_change channel=9 control=4 value=90 time=8\n",
      "note_on channel=9 note=42 velocity=50 time=0\n",
      "note_on channel=9 note=36 velocity=0 time=57\n",
      "note_on channel=9 note=38 velocity=0 time=0\n",
      "note_on channel=9 note=42 velocity=0 time=7\n",
      "note_on channel=9 note=36 velocity=31 time=42\n",
      "control_change channel=9 control=4 value=90 time=5\n",
      "note_on channel=9 note=42 velocity=27 time=0\n",
      "control_change channel=9 control=4 value=85 time=30\n",
      "note_on channel=9 note=36 velocity=0 time=29\n",
      "control_change channel=9 control=4 value=80 time=1\n",
      "note_on channel=9 note=42 velocity=0 time=5\n",
      "control_change channel=9 control=4 value=75 time=20\n",
      "control_change channel=9 control=4 value=66 time=15\n",
      "control_change channel=9 control=4 value=56 time=15\n",
      "note_on channel=9 note=38 velocity=64 time=6\n",
      "control_change channel=9 control=4 value=48 time=6\n",
      "note_on channel=9 note=26 velocity=82 time=0\n",
      "control_change channel=9 control=4 value=44 time=15\n",
      "control_change channel=9 control=4 value=39 time=15\n",
      "control_change channel=9 control=4 value=36 time=8\n",
      "note_on channel=9 note=38 velocity=0 time=21\n",
      "note_on channel=9 note=26 velocity=0 time=5\n",
      "control_change channel=9 control=4 value=36 time=176\n",
      "note_on channel=9 note=46 velocity=77 time=0\n",
      "control_change channel=9 control=4 value=38 time=60\n",
      "note_on channel=9 note=46 velocity=0 time=5\n",
      "control_change channel=9 control=4 value=40 time=21\n",
      "control_change channel=9 control=4 value=37 time=15\n",
      "control_change channel=9 control=4 value=34 time=15\n",
      "note_on channel=9 note=38 velocity=8 time=5\n",
      "control_change channel=9 control=4 value=30 time=10\n",
      "control_change channel=9 control=4 value=27 time=15\n",
      "control_change channel=9 control=4 value=24 time=15\n",
      "control_change channel=9 control=4 value=20 time=15\n",
      "note_on channel=9 note=38 velocity=0 time=10\n",
      "control_change channel=9 control=4 value=17 time=5\n",
      "control_change channel=9 control=4 value=16 time=2\n",
      "control_change channel=9 control=4 value=36 time=15\n",
      "control_change channel=9 control=4 value=57 time=15\n",
      "note_on channel=9 note=44 velocity=35 time=3\n",
      "control_change channel=9 control=4 value=78 time=12\n",
      "note_on channel=9 note=36 velocity=43 time=0\n",
      "note_on channel=9 note=42 velocity=46 time=6\n",
      "control_change channel=9 control=4 value=90 time=2\n",
      "note_on channel=9 note=44 velocity=0 time=44\n",
      "note_on channel=9 note=36 velocity=0 time=13\n",
      "note_on channel=9 note=42 velocity=0 time=5\n",
      "control_change channel=9 control=4 value=90 time=47\n",
      "note_on channel=9 note=42 velocity=33 time=0\n",
      "note_on channel=9 note=42 velocity=0 time=65\n",
      "control_change channel=9 control=4 value=90 time=54\n",
      "note_on channel=9 note=42 velocity=94 time=0\n",
      "note_on channel=9 note=42 velocity=0 time=65\n",
      "note_on channel=9 note=36 velocity=30 time=52\n",
      "control_change channel=9 control=4 value=90 time=5\n",
      "note_on channel=9 note=42 velocity=13 time=0\n",
      "note_on channel=9 note=36 velocity=0 time=59\n",
      "note_on channel=9 note=42 velocity=0 time=5\n",
      "control_change channel=9 control=4 value=90 time=57\n",
      "note_on channel=9 note=42 velocity=83 time=0\n",
      "note_on channel=9 note=38 velocity=66 time=1\n",
      "note_on channel=9 note=42 velocity=0 time=63\n",
      "note_on channel=9 note=38 velocity=0 time=2\n",
      "control_change channel=9 control=4 value=90 time=55\n",
      "note_on channel=9 note=42 velocity=33 time=0\n",
      "note_on channel=9 note=42 velocity=0 time=65\n",
      "control_change channel=9 control=4 value=90 time=58\n",
      "note_on channel=9 note=42 velocity=95 time=0\n",
      "note_on channel=9 note=42 velocity=0 time=65\n",
      "control_change channel=9 control=4 value=90 time=56\n",
      "note_on channel=9 note=42 velocity=29 time=0\n",
      "note_on channel=9 note=38 velocity=50 time=9\n",
      "note_on channel=9 note=42 velocity=0 time=56\n",
      "note_on channel=9 note=38 velocity=0 time=8\n",
      "control_change channel=9 control=4 value=90 time=45\n",
      "note_on channel=9 note=42 velocity=79 time=0\n",
      "note_on channel=9 note=42 velocity=0 time=65\n",
      "note_on channel=9 note=38 velocity=13 time=44\n",
      "control_change channel=9 control=4 value=90 time=14\n",
      "note_on channel=9 note=42 velocity=32 time=0\n",
      "note_on channel=9 note=38 velocity=0 time=50\n",
      "note_on channel=9 note=42 velocity=0 time=14\n",
      "note_on channel=9 note=36 velocity=21 time=18\n",
      "note_on channel=9 note=38 velocity=23 time=33\n",
      "control_change channel=9 control=4 value=90 time=1\n",
      "note_on channel=9 note=42 velocity=40 time=0\n",
      "note_on channel=9 note=36 velocity=0 time=31\n",
      "note_on channel=9 note=38 velocity=0 time=33\n",
      "note_on channel=9 note=42 velocity=0 time=1\n",
      "note_on channel=9 note=36 velocity=36 time=43\n",
      "control_change channel=9 control=4 value=90 time=5\n",
      "note_on channel=9 note=42 velocity=24 time=0\n",
      "control_change channel=9 control=4 value=88 time=30\n",
      "note_on channel=9 note=36 velocity=0 time=29\n",
      "control_change channel=9 control=4 value=86 time=1\n",
      "note_on channel=9 note=42 velocity=0 time=5\n",
      "control_change channel=9 control=4 value=83 time=20\n",
      "control_change channel=9 control=4 value=75 time=15\n",
      "control_change channel=9 control=4 value=67 time=15\n",
      "control_change channel=9 control=4 value=63 time=7\n",
      "note_on channel=9 note=26 velocity=71 time=0\n",
      "note_on channel=9 note=38 velocity=64 time=0\n",
      "control_change channel=9 control=4 value=60 time=15\n",
      "control_change channel=9 control=4 value=56 time=15\n",
      "control_change channel=9 control=4 value=54 time=4\n",
      "control_change channel=9 control=4 value=47 time=15\n",
      "control_change channel=9 control=4 value=39 time=15\n",
      "note_on channel=9 note=26 velocity=0 time=0\n",
      "note_on channel=9 note=38 velocity=0 time=0\n",
      "control_change channel=9 control=4 value=35 time=8\n",
      "control_change channel=9 control=4 value=36 time=60\n",
      "control_change channel=9 control=4 value=37 time=60\n",
      "control_change channel=9 control=4 value=38 time=44\n",
      "note_on channel=9 note=26 velocity=76 time=0\n",
      "control_change channel=9 control=4 value=35 time=30\n",
      "control_change channel=9 control=4 value=32 time=30\n",
      "note_on channel=9 note=26 velocity=0 time=5\n",
      "control_change channel=9 control=4 value=28 time=25\n",
      "control_change channel=9 control=4 value=25 time=30\n",
      "note_on channel=9 note=38 velocity=6 time=21\n",
      "control_change channel=9 control=4 value=21 time=9\n",
      "control_change channel=9 control=4 value=18 time=30\n",
      "control_change channel=9 control=4 value=16 time=14\n",
      "note_on channel=9 note=38 velocity=0 time=11\n",
      "control_change channel=9 control=4 value=26 time=4\n",
      "control_change channel=9 control=4 value=36 time=15\n",
      "control_change channel=9 control=4 value=39 time=4\n",
      "note_on channel=9 note=44 velocity=27 time=10\n",
      "control_change channel=9 control=4 value=64 time=5\n",
      "note_on channel=9 note=36 velocity=38 time=3\n",
      "control_change channel=9 control=4 value=90 time=12\n",
      "note_on channel=9 note=42 velocity=50 time=0\n",
      "note_on channel=9 note=44 velocity=0 time=44\n",
      "note_on channel=9 note=36 velocity=0 time=9\n",
      "note_on channel=9 note=42 velocity=0 time=12\n",
      "control_change channel=9 control=4 value=90 time=43\n",
      "note_on channel=9 note=42 velocity=35 time=0\n",
      "note_on channel=9 note=42 velocity=0 time=65\n",
      "control_change channel=9 control=4 value=90 time=55\n",
      "note_on channel=9 note=42 velocity=81 time=0\n",
      "note_on channel=9 note=42 velocity=0 time=65\n",
      "note_on channel=9 note=36 velocity=35 time=50\n",
      "control_change channel=9 control=4 value=90 time=7\n",
      "note_on channel=9 note=42 velocity=21 time=0\n",
      "note_on channel=9 note=36 velocity=0 time=57\n",
      "note_on channel=9 note=42 velocity=0 time=8\n",
      "note_on channel=9 note=38 velocity=64 time=54\n",
      "control_change channel=9 control=4 value=90 time=3\n",
      "note_on channel=9 note=42 velocity=66 time=0\n",
      "note_on channel=9 note=38 velocity=0 time=62\n",
      "note_on channel=9 note=42 velocity=0 time=3\n",
      "control_change channel=9 control=4 value=90 time=49\n",
      "note_on channel=9 note=42 velocity=43 time=0\n",
      "note_on channel=9 note=42 velocity=0 time=64\n",
      "control_change channel=9 control=4 value=90 time=54\n",
      "note_on channel=9 note=42 velocity=84 time=0\n",
      "note_on channel=9 note=42 velocity=0 time=65\n",
      "control_change channel=9 control=4 value=90 time=52\n",
      "note_on channel=9 note=42 velocity=32 time=0\n",
      "note_on channel=9 note=38 velocity=21 time=2\n",
      "note_on channel=9 note=42 velocity=0 time=62\n",
      "note_on channel=9 note=38 velocity=0 time=3\n",
      "control_change channel=9 control=4 value=90 time=52\n",
      "note_on channel=9 note=42 velocity=87 time=0\n",
      "note_on channel=9 note=42 velocity=0 time=65\n",
      "note_on channel=9 note=38 velocity=35 time=53\n",
      "control_change channel=9 control=4 value=90 time=3\n",
      "note_on channel=9 note=42 velocity=32 time=0\n",
      "note_on channel=9 note=38 velocity=0 time=62\n",
      "note_on channel=9 note=42 velocity=0 time=3\n",
      "control_change channel=9 control=4 value=90 time=51\n",
      "note_on channel=9 note=42 velocity=48 time=0\n",
      "note_on channel=9 note=36 velocity=33 time=4\n",
      "note_on channel=9 note=42 velocity=0 time=61\n",
      "note_on channel=9 note=36 velocity=0 time=4\n",
      "control_change channel=9 control=4 value=90 time=40\n",
      "note_on channel=9 note=42 velocity=34 time=0\n",
      "note_on channel=9 note=36 velocity=40 time=13\n",
      "control_change channel=9 control=4 value=85 time=17\n",
      "control_change channel=9 control=4 value=80 time=30\n",
      "note_on channel=9 note=42 velocity=0 time=5\n",
      "note_on channel=9 note=36 velocity=0 time=12\n",
      "control_change channel=9 control=4 value=75 time=13\n",
      "control_change channel=9 control=4 value=73 time=11\n",
      "control_change channel=9 control=4 value=65 time=15\n",
      "note_on channel=9 note=37 velocity=65 time=8\n",
      "note_on channel=9 note=26 velocity=72 time=4\n",
      "control_change channel=9 control=4 value=56 time=3\n",
      "control_change channel=9 control=4 value=51 time=8\n",
      "note_on channel=9 note=38 velocity=41 time=8\n",
      "control_change channel=9 control=4 value=44 time=7\n",
      "control_change channel=9 control=4 value=36 time=15\n",
      "control_change channel=9 control=4 value=28 time=13\n",
      "note_on channel=9 note=37 velocity=0 time=7\n",
      "note_on channel=9 note=26 velocity=0 time=4\n",
      "note_on channel=9 note=38 velocity=0 time=19\n",
      "control_change channel=9 control=4 value=29 time=30\n",
      "control_change channel=9 control=4 value=31 time=60\n",
      "control_change channel=9 control=4 value=33 time=60\n",
      "note_on channel=9 note=26 velocity=70 time=0\n",
      "control_change channel=9 control=4 value=30 time=30\n",
      "control_change channel=9 control=4 value=26 time=30\n",
      "note_on channel=9 note=26 velocity=0 time=5\n",
      "control_change channel=9 control=4 value=23 time=25\n",
      "control_change channel=9 control=4 value=19 time=30\n",
      "note_on channel=9 note=38 velocity=18 time=12\n",
      "control_change channel=9 control=4 value=15 time=18\n",
      "note_on channel=9 note=38 velocity=0 time=18\n",
      "note_on channel=9 note=38 velocity=19 time=0\n",
      "control_change channel=9 control=4 value=12 time=12\n",
      "note_on channel=9 note=38 velocity=0 time=16\n",
      "note_on channel=9 note=38 velocity=8 time=0\n",
      "control_change channel=9 control=4 value=9 time=2\n",
      "control_change channel=9 control=4 value=13 time=15\n",
      "note_on channel=9 note=38 velocity=0 time=14\n",
      "note_on channel=9 note=38 velocity=8 time=0\n",
      "control_change channel=9 control=4 value=17 time=1\n",
      "control_change channel=9 control=4 value=18 time=2\n",
      "note_on channel=9 note=38 velocity=0 time=2\n",
      "note_on channel=9 note=44 velocity=37 time=10\n",
      "control_change channel=9 control=4 value=51 time=3\n",
      "note_on channel=9 note=36 velocity=44 time=3\n",
      "note_on channel=9 note=42 velocity=41 time=1\n",
      "control_change channel=9 control=4 value=84 time=11\n",
      "control_change channel=9 control=4 value=90 time=2\n",
      "note_on channel=9 note=44 velocity=0 time=45\n",
      "note_on channel=9 note=36 velocity=0 time=5\n",
      "note_on channel=9 note=42 velocity=0 time=2\n",
      "control_change channel=9 control=4 value=90 time=39\n",
      "note_on channel=9 note=42 velocity=36 time=0\n",
      "note_on channel=9 note=42 velocity=0 time=65\n",
      "note_on channel=9 note=36 velocity=44 time=64\n",
      "control_change channel=9 control=4 value=90 time=3\n",
      "note_on channel=9 note=42 velocity=51 time=0\n",
      "note_on channel=9 note=36 velocity=0 time=62\n",
      "note_on channel=9 note=42 velocity=0 time=3\n",
      "control_change channel=9 control=4 value=90 time=57\n",
      "note_on channel=9 note=42 velocity=24 time=0\n",
      "note_on channel=9 note=42 velocity=0 time=65\n",
      "note_on channel=9 note=38 velocity=67 time=53\n",
      "control_change channel=9 control=4 value=90 time=8\n",
      "note_on channel=9 note=42 velocity=64 time=0\n",
      "note_on channel=9 note=38 velocity=0 time=56\n",
      "note_on channel=9 note=42 velocity=0 time=9\n",
      "control_change channel=9 control=4 value=90 time=56\n",
      "note_on channel=9 note=36 velocity=46 time=0\n",
      "note_on channel=9 note=42 velocity=28 time=0\n",
      "note_on channel=9 note=36 velocity=0 time=65\n",
      "note_on channel=9 note=42 velocity=0 time=0\n",
      "control_change channel=9 control=4 value=90 time=56\n",
      "note_on channel=9 note=42 velocity=52 time=0\n",
      "note_on channel=9 note=42 velocity=0 time=65\n",
      "note_on channel=9 note=38 velocity=73 time=50\n",
      "control_change channel=9 control=4 value=90 time=9\n",
      "note_on channel=9 note=42 velocity=27 time=0\n",
      "note_on channel=9 note=38 velocity=0 time=56\n",
      "note_on channel=9 note=42 velocity=0 time=9\n",
      "control_change channel=9 control=4 value=90 time=54\n",
      "note_on channel=9 note=42 velocity=24 time=0\n",
      "note_on channel=9 note=42 velocity=0 time=65\n",
      "control_change channel=9 control=4 value=90 time=48\n",
      "note_on channel=9 note=42 velocity=36 time=0\n",
      "note_on channel=9 note=42 velocity=0 time=65\n",
      "control_change channel=9 control=4 value=90 time=63\n",
      "note_on channel=9 note=36 velocity=43 time=0\n",
      "note_on channel=9 note=42 velocity=54 time=0\n",
      "note_on channel=9 note=36 velocity=0 time=65\n",
      "note_on channel=9 note=42 velocity=0 time=0\n",
      "control_change channel=9 control=4 value=90 time=55\n",
      "note_on channel=9 note=42 velocity=24 time=0\n",
      "note_on channel=9 note=42 velocity=0 time=65\n",
      "control_change channel=9 control=4 value=90 time=58\n",
      "note_on channel=9 note=42 velocity=40 time=0\n",
      "note_on channel=9 note=38 velocity=59 time=2\n",
      "note_on channel=9 note=42 velocity=0 time=63\n",
      "note_on channel=9 note=38 velocity=0 time=2\n",
      "control_change channel=9 control=4 value=90 time=58\n",
      "note_on channel=9 note=42 velocity=27 time=0\n",
      "note_on channel=9 note=36 velocity=43 time=3\n",
      "note_on channel=9 note=42 velocity=0 time=62\n",
      "note_on channel=9 note=36 velocity=0 time=2\n",
      "control_change channel=9 control=4 value=90 time=50\n",
      "note_on channel=9 note=42 velocity=32 time=0\n",
      "note_on channel=9 note=42 velocity=0 time=65\n",
      "note_on channel=9 note=37 velocity=63 time=54\n",
      "control_change channel=9 control=4 value=90 time=9\n",
      "note_on channel=9 note=42 velocity=33 time=0\n",
      "note_on channel=9 note=37 velocity=0 time=55\n",
      "note_on channel=9 note=42 velocity=0 time=10\n",
      "control_change channel=9 control=4 value=90 time=45\n",
      "note_on channel=9 note=42 velocity=36 time=0\n",
      "note_on channel=9 note=42 velocity=0 time=65\n",
      "control_change channel=9 control=4 value=90 time=52\n",
      "note_on channel=9 note=42 velocity=52 time=0\n",
      "note_on channel=9 note=42 velocity=0 time=65\n",
      "note_on channel=9 note=36 velocity=48 time=46\n",
      "control_change channel=9 control=4 value=90 time=16\n",
      "note_on channel=9 note=42 velocity=40 time=0\n",
      "note_on channel=9 note=36 velocity=0 time=48\n",
      "note_on channel=9 note=42 velocity=0 time=17\n",
      "control_change channel=9 control=4 value=90 time=55\n",
      "note_on channel=9 note=42 velocity=24 time=0\n",
      "note_on channel=9 note=42 velocity=0 time=65\n",
      "control_change channel=9 control=4 value=90 time=49\n",
      "note_on channel=9 note=38 velocity=56 time=0\n",
      "note_on channel=9 note=42 velocity=41 time=0\n",
      "note_on channel=9 note=38 velocity=0 time=65\n",
      "note_on channel=9 note=42 velocity=0 time=0\n",
      "control_change channel=9 control=4 value=90 time=64\n",
      "note_on channel=9 note=42 velocity=31 time=0\n",
      "note_on channel=9 note=36 velocity=40 time=7\n",
      "note_on channel=9 note=42 velocity=0 time=58\n",
      "note_on channel=9 note=36 velocity=0 time=6\n",
      "control_change channel=9 control=4 value=90 time=48\n",
      "note_on channel=9 note=42 velocity=46 time=0\n",
      "note_on channel=9 note=42 velocity=0 time=65\n",
      "control_change channel=9 control=4 value=90 time=54\n",
      "note_on channel=9 note=38 velocity=56 time=0\n",
      "note_on channel=9 note=42 velocity=42 time=0\n",
      "note_on channel=9 note=38 velocity=0 time=65\n",
      "note_on channel=9 note=42 velocity=0 time=0\n",
      "control_change channel=9 control=4 value=90 time=54\n",
      "note_on channel=9 note=42 velocity=30 time=0\n",
      "note_on channel=9 note=42 velocity=0 time=65\n",
      "control_change channel=9 control=4 value=90 time=52\n",
      "note_on channel=9 note=42 velocity=35 time=0\n",
      "note_on channel=9 note=42 velocity=0 time=65\n",
      "control_change channel=9 control=4 value=90 time=55\n",
      "note_on channel=9 note=42 velocity=55 time=0\n",
      "note_on channel=9 note=36 velocity=39 time=4\n",
      "note_on channel=9 note=42 velocity=0 time=62\n",
      "note_on channel=9 note=36 velocity=0 time=3\n",
      "control_change channel=9 control=4 value=90 time=47\n",
      "note_on channel=9 note=42 velocity=27 time=0\n",
      "note_on channel=9 note=42 velocity=0 time=65\n",
      "note_on channel=9 note=38 velocity=56 time=54\n",
      "control_change channel=9 control=4 value=90 time=5\n",
      "note_on channel=9 note=42 velocity=40 time=0\n",
      "control_change channel=9 control=4 value=86 time=15\n",
      "control_change channel=9 control=4 value=81 time=15\n",
      "control_change channel=9 control=4 value=77 time=15\n",
      "note_on channel=9 note=38 velocity=0 time=14\n",
      "control_change channel=9 control=4 value=72 time=1\n",
      "note_on channel=9 note=42 velocity=0 time=5\n",
      "control_change channel=9 control=4 value=67 time=10\n",
      "control_change channel=9 control=4 value=63 time=15\n",
      "control_change channel=9 control=4 value=58 time=15\n",
      "control_change channel=9 control=4 value=54 time=15\n",
      "note_on channel=9 note=46 velocity=43 time=9\n",
      "note_on channel=9 note=36 velocity=33 time=3\n",
      "control_change channel=9 control=4 value=49 time=3\n",
      "control_change channel=9 control=4 value=45 time=12\n",
      "control_change channel=9 control=4 value=27 time=15\n",
      "control_change channel=9 control=4 value=9 time=15\n",
      "control_change channel=9 control=4 value=0 time=7\n",
      "note_on channel=9 note=46 velocity=0 time=9\n",
      "note_on channel=9 note=36 velocity=0 time=4\n",
      "control_change channel=9 control=4 value=18 time=2\n",
      "control_change channel=9 control=4 value=36 time=15\n",
      "control_change channel=9 control=4 value=54 time=15\n",
      "note_on channel=9 note=44 velocity=70 time=9\n",
      "control_change channel=9 control=4 value=72 time=6\n",
      "note_on channel=9 note=42 velocity=40 time=12\n",
      "control_change channel=9 control=4 value=90 time=2\n",
      "note_on channel=9 note=44 velocity=0 time=44\n",
      "note_on channel=9 note=42 velocity=0 time=18\n",
      "note_on channel=9 note=38 velocity=59 time=54\n",
      "control_change channel=9 control=4 value=90 time=3\n",
      "note_on channel=9 note=42 velocity=52 time=0\n",
      "note_on channel=9 note=38 velocity=0 time=62\n",
      "note_on channel=9 note=42 velocity=0 time=3\n",
      "control_change channel=9 control=4 value=90 time=51\n",
      "note_on channel=9 note=42 velocity=31 time=0\n",
      "note_on channel=9 note=42 velocity=0 time=65\n",
      "control_change channel=9 control=4 value=90 time=52\n",
      "note_on channel=9 note=42 velocity=48 time=0\n",
      "note_on channel=9 note=42 velocity=0 time=65\n",
      "note_on channel=9 note=36 velocity=28 time=34\n",
      "control_change channel=9 control=4 value=90 time=13\n",
      "note_on channel=9 note=42 velocity=49 time=0\n",
      "note_on channel=9 note=36 velocity=0 time=51\n",
      "note_on channel=9 note=42 velocity=0 time=14\n",
      "control_change channel=9 control=4 value=90 time=46\n",
      "note_on channel=9 note=42 velocity=45 time=0\n",
      "note_on channel=9 note=42 velocity=0 time=65\n",
      "note_on channel=9 note=38 velocity=55 time=58\n",
      "control_change channel=9 control=4 value=90 time=2\n",
      "note_on channel=9 note=42 velocity=53 time=0\n",
      "control_change channel=9 control=4 value=86 time=30\n",
      "control_change channel=9 control=4 value=82 time=30\n",
      "note_on channel=9 note=38 velocity=0 time=2\n",
      "note_on channel=9 note=42 velocity=0 time=3\n",
      "control_change channel=9 control=4 value=77 time=25\n",
      "control_change channel=9 control=4 value=73 time=30\n",
      "note_on channel=9 note=46 velocity=34 time=3\n",
      "control_change channel=9 control=4 value=71 time=5\n",
      "note_on channel=9 note=36 velocity=47 time=2\n",
      "control_change channel=9 control=4 value=39 time=13\n",
      "control_change channel=9 control=4 value=7 time=15\n",
      "control_change channel=9 control=4 value=0 time=3\n",
      "control_change channel=9 control=4 value=13 time=15\n",
      "note_on channel=9 note=46 velocity=0 time=12\n",
      "control_change channel=9 control=4 value=27 time=3\n",
      "note_on channel=9 note=36 velocity=0 time=3\n",
      "control_change channel=9 control=4 value=41 time=12\n",
      "control_change channel=9 control=4 value=55 time=15\n",
      "control_change channel=9 control=4 value=68 time=15\n",
      "note_on channel=9 note=44 velocity=57 time=3\n",
      "control_change channel=9 control=4 value=82 time=12\n",
      "control_change channel=9 control=4 value=90 time=8\n",
      "note_on channel=9 note=44 velocity=0 time=45\n",
      "note_on channel=9 note=38 velocity=54 time=51\n",
      "control_change channel=9 control=4 value=90 time=1\n",
      "note_on channel=9 note=42 velocity=58 time=0\n",
      "note_on channel=9 note=38 velocity=0 time=63\n",
      "note_on channel=9 note=42 velocity=0 time=2\n",
      "control_change channel=9 control=4 value=90 time=53\n",
      "note_on channel=9 note=42 velocity=38 time=0\n",
      "note_on channel=9 note=42 velocity=0 time=64\n",
      "control_change channel=9 control=4 value=90 time=49\n",
      "note_on channel=9 note=42 velocity=40 time=0\n",
      "note_on channel=9 note=42 velocity=0 time=65\n",
      "note_on channel=9 note=36 velocity=39 time=52\n",
      "control_change channel=9 control=4 value=90 time=10\n",
      "note_on channel=9 note=42 velocity=47 time=0\n",
      "note_on channel=9 note=36 velocity=0 time=55\n",
      "note_on channel=9 note=42 velocity=0 time=9\n",
      "control_change channel=9 control=4 value=90 time=58\n",
      "note_on channel=9 note=42 velocity=9 time=0\n",
      "note_on channel=9 note=42 velocity=0 time=65\n",
      "note_on channel=9 note=38 velocity=58 time=46\n",
      "control_change channel=9 control=4 value=90 time=15\n",
      "note_on channel=9 note=42 velocity=34 time=0\n",
      "control_change channel=9 control=4 value=85 time=15\n",
      "control_change channel=9 control=4 value=80 time=15\n",
      "control_change channel=9 control=4 value=75 time=15\n",
      "note_on channel=9 note=38 velocity=0 time=5\n",
      "control_change channel=9 control=4 value=70 time=10\n",
      "note_on channel=9 note=42 velocity=0 time=5\n",
      "control_change channel=9 control=4 value=65 time=10\n",
      "control_change channel=9 control=4 value=60 time=15\n",
      "control_change channel=9 control=4 value=55 time=15\n",
      "note_on channel=9 note=36 velocity=36 time=14\n",
      "control_change channel=9 control=4 value=50 time=1\n",
      "note_on channel=9 note=46 velocity=37 time=0\n",
      "control_change channel=9 control=4 value=47 time=8\n",
      "control_change channel=9 control=4 value=26 time=15\n",
      "control_change channel=9 control=4 value=5 time=15\n",
      "control_change channel=9 control=4 value=0 time=3\n",
      "control_change channel=9 control=4 value=16 time=15\n",
      "note_on channel=9 note=36 velocity=0 time=7\n",
      "note_on channel=9 note=46 velocity=0 time=1\n",
      "control_change channel=9 control=4 value=32 time=7\n",
      "control_change channel=9 control=4 value=48 time=15\n",
      "control_change channel=9 control=4 value=64 time=15\n",
      "note_on channel=9 note=44 velocity=55 time=4\n",
      "control_change channel=9 control=4 value=80 time=11\n",
      "note_on channel=9 note=42 velocity=36 time=5\n",
      "control_change channel=9 control=4 value=90 time=4\n",
      "note_on channel=9 note=44 velocity=0 time=44\n",
      "note_on channel=9 note=42 velocity=0 time=16\n",
      "note_on channel=9 note=38 velocity=58 time=54\n",
      "control_change channel=9 control=4 value=90 time=1\n",
      "note_on channel=9 note=42 velocity=47 time=0\n",
      "note_on channel=9 note=38 velocity=0 time=63\n",
      "note_on channel=9 note=42 velocity=0 time=2\n",
      "control_change channel=9 control=4 value=90 time=49\n",
      "note_on channel=9 note=42 velocity=37 time=0\n",
      "note_on channel=9 note=42 velocity=0 time=65\n",
      "control_change channel=9 control=4 value=90 time=52\n",
      "note_on channel=9 note=42 velocity=43 time=0\n",
      "note_on channel=9 note=42 velocity=0 time=65\n",
      "control_change channel=9 control=4 value=90 time=56\n",
      "note_on channel=9 note=42 velocity=50 time=0\n",
      "note_on channel=9 note=36 velocity=36 time=5\n",
      "note_on channel=9 note=42 velocity=0 time=60\n",
      "note_on channel=9 note=36 velocity=0 time=5\n",
      "control_change channel=9 control=4 value=90 time=50\n",
      "note_on channel=9 note=42 velocity=34 time=0\n",
      "note_on channel=9 note=38 velocity=20 time=17\n",
      "note_on channel=9 note=42 velocity=0 time=48\n",
      "note_on channel=9 note=38 velocity=0 time=17\n",
      "control_change channel=9 control=4 value=90 time=44\n",
      "note_on channel=9 note=42 velocity=40 time=0\n",
      "note_on channel=9 note=38 velocity=59 time=3\n",
      "control_change channel=9 control=4 value=86 time=12\n",
      "control_change channel=9 control=4 value=82 time=15\n",
      "control_change channel=9 control=4 value=78 time=15\n",
      "control_change channel=9 control=4 value=74 time=15\n",
      "note_on channel=9 note=42 velocity=0 time=5\n",
      "note_on channel=9 note=38 velocity=0 time=2\n",
      "control_change channel=9 control=4 value=70 time=8\n",
      "control_change channel=9 control=4 value=66 time=15\n",
      "control_change channel=9 control=4 value=62 time=15\n",
      "control_change channel=9 control=4 value=58 time=15\n",
      "note_on channel=9 note=46 velocity=37 time=4\n",
      "note_on channel=9 note=36 velocity=38 time=7\n",
      "control_change channel=9 control=4 value=54 time=1\n",
      "control_change channel=9 control=4 value=32 time=15\n",
      "control_change channel=9 control=4 value=9 time=15\n",
      "control_change channel=9 control=4 value=0 time=6\n",
      "control_change channel=9 control=4 value=16 time=15\n",
      "note_on channel=9 note=46 velocity=0 time=5\n",
      "note_on channel=9 note=36 velocity=0 time=7\n",
      "control_change channel=9 control=4 value=33 time=3\n",
      "control_change channel=9 control=4 value=49 time=15\n",
      "note_on channel=9 note=44 velocity=77 time=14\n",
      "control_change channel=9 control=4 value=66 time=1\n",
      "control_change channel=9 control=4 value=82 time=15\n",
      "control_change channel=9 control=4 value=90 time=7\n",
      "note_on channel=9 note=42 velocity=47 time=0\n",
      "note_on channel=9 note=44 velocity=0 time=42\n",
      "note_on channel=9 note=42 velocity=0 time=22\n",
      "note_on channel=9 note=38 velocity=51 time=43\n",
      "control_change channel=9 control=4 value=90 time=11\n",
      "note_on channel=9 note=42 velocity=64 time=0\n",
      "note_on channel=9 note=38 velocity=0 time=54\n",
      "note_on channel=9 note=42 velocity=0 time=11\n",
      "note_on channel=9 note=36 velocity=28 time=44\n",
      "control_change channel=9 control=4 value=90 time=9\n",
      "note_on channel=9 note=42 velocity=47 time=0\n",
      "note_on channel=9 note=36 velocity=0 time=56\n",
      "note_on channel=9 note=42 velocity=0 time=9\n",
      "note_on channel=9 note=38 velocity=20 time=47\n",
      "control_change channel=9 control=4 value=90 time=2\n",
      "note_on channel=9 note=42 velocity=44 time=0\n",
      "note_on channel=9 note=38 velocity=0 time=63\n",
      "note_on channel=9 note=42 velocity=0 time=2\n",
      "control_change channel=9 control=4 value=90 time=59\n",
      "note_on channel=9 note=42 velocity=43 time=0\n",
      "note_on channel=9 note=36 velocity=34 time=1\n",
      "note_on channel=9 note=42 velocity=0 time=64\n",
      "note_on channel=9 note=36 velocity=0 time=1\n",
      "control_change channel=9 control=4 value=90 time=51\n",
      "note_on channel=9 note=42 velocity=34 time=0\n",
      "note_on channel=9 note=42 velocity=0 time=65\n",
      "note_on channel=9 note=37 velocity=69 time=60\n",
      "control_change channel=9 control=4 value=90 time=2\n",
      "note_on channel=9 note=42 velocity=41 time=0\n",
      "note_on channel=9 note=37 velocity=0 time=63\n",
      "note_on channel=9 note=42 velocity=0 time=1\n",
      "control_change channel=9 control=4 value=90 time=55\n",
      "note_on channel=9 note=42 velocity=22 time=0\n",
      "control_change channel=9 control=4 value=87 time=15\n",
      "control_change channel=9 control=4 value=84 time=15\n",
      "control_change channel=9 control=4 value=81 time=15\n",
      "control_change channel=9 control=4 value=78 time=15\n",
      "note_on channel=9 note=42 velocity=0 time=5\n",
      "control_change channel=9 control=4 value=75 time=10\n",
      "control_change channel=9 control=4 value=72 time=15\n",
      "control_change channel=9 control=4 value=69 time=15\n",
      "control_change channel=9 control=4 value=66 time=15\n",
      "note_on channel=9 note=40 velocity=91 time=8\n",
      "control_change channel=9 control=4 value=64 time=1\n",
      "note_on channel=9 note=46 velocity=65 time=0\n",
      "control_change channel=9 control=4 value=58 time=15\n",
      "note_on channel=9 note=38 velocity=62 time=0\n",
      "control_change channel=9 control=4 value=51 time=15\n",
      "note_on channel=9 note=46 velocity=0 time=8\n",
      "note_on channel=9 note=46 velocity=36 time=0\n",
      "control_change channel=9 control=4 value=44 time=7\n",
      "control_change channel=9 control=4 value=41 time=6\n",
      "note_on channel=9 note=40 velocity=0 time=12\n",
      "note_on channel=9 note=46 velocity=0 time=2\n",
      "control_change channel=9 control=4 value=36 time=1\n",
      "control_change channel=9 control=4 value=31 time=14\n",
      "note_on channel=9 note=38 velocity=0 time=0\n",
      "control_change channel=9 control=4 value=30 time=2\n",
      "control_change channel=9 control=4 value=25 time=30\n",
      "control_change channel=9 control=4 value=20 time=23\n",
      "control_change channel=9 control=4 value=21 time=60\n",
      "note_on channel=9 note=36 velocity=45 time=44\n",
      "control_change channel=9 control=4 value=22 time=16\n",
      "note_on channel=9 note=46 velocity=66 time=0\n",
      "note_on channel=9 note=36 velocity=0 time=49\n",
      "control_change channel=9 control=4 value=24 time=11\n",
      "note_on channel=9 note=46 velocity=0 time=5\n",
      "control_change channel=9 control=4 value=26 time=18\n",
      "control_change channel=9 control=4 value=29 time=30\n",
      "control_change channel=9 control=4 value=30 time=3\n",
      "control_change channel=9 control=4 value=26 time=30\n",
      "control_change channel=9 control=4 value=24 time=14\n",
      "control_change channel=9 control=4 value=38 time=15\n",
      "control_change channel=9 control=4 value=52 time=15\n",
      "control_change channel=9 control=4 value=66 time=15\n",
      "note_on channel=9 note=44 velocity=30 time=5\n",
      "control_change channel=9 control=4 value=80 time=10\n",
      "note_on channel=9 note=36 velocity=37 time=0\n",
      "note_on channel=9 note=42 velocity=41 time=5\n",
      "control_change channel=9 control=4 value=90 time=5\n",
      "note_on channel=9 note=44 velocity=0 time=44\n",
      "note_on channel=9 note=36 velocity=0 time=11\n",
      "note_on channel=9 note=42 velocity=0 time=4\n",
      "control_change channel=9 control=4 value=90 time=52\n",
      "note_on channel=9 note=42 velocity=21 time=0\n",
      "note_on channel=9 note=42 velocity=0 time=65\n",
      "note_on channel=9 note=38 velocity=61 time=55\n",
      "control_change channel=9 control=4 value=90 time=6\n",
      "note_on channel=9 note=42 velocity=63 time=0\n",
      "note_on channel=9 note=38 velocity=0 time=58\n",
      "note_on channel=9 note=42 velocity=0 time=7\n",
      "control_change channel=9 control=4 value=90 time=56\n",
      "note_on channel=9 note=42 velocity=36 time=0\n",
      "note_on channel=9 note=36 velocity=39 time=2\n",
      "note_on channel=9 note=42 velocity=0 time=63\n",
      "note_on channel=9 note=36 velocity=0 time=2\n",
      "control_change channel=9 control=4 value=90 time=42\n",
      "note_on channel=9 note=42 velocity=38 time=0\n",
      "note_on channel=9 note=42 velocity=0 time=65\n",
      "note_on channel=9 note=38 velocity=59 time=55\n",
      "control_change channel=9 control=4 value=90 time=3\n",
      "note_on channel=9 note=42 velocity=28 time=0\n",
      "note_on channel=9 note=38 velocity=0 time=61\n",
      "note_on channel=9 note=42 velocity=0 time=4\n",
      "control_change channel=9 control=4 value=90 time=49\n",
      "note_on channel=9 note=42 velocity=36 time=0\n",
      "note_on channel=9 note=42 velocity=0 time=65\n",
      "control_change channel=9 control=4 value=90 time=52\n",
      "note_on channel=9 note=42 velocity=36 time=0\n",
      "note_on channel=9 note=42 velocity=0 time=64\n",
      "control_change channel=9 control=4 value=90 time=49\n",
      "note_on channel=9 note=42 velocity=36 time=0\n",
      "note_on channel=9 note=36 velocity=38 time=5\n",
      "note_on channel=9 note=42 velocity=0 time=60\n",
      "note_on channel=9 note=36 velocity=0 time=4\n",
      "control_change channel=9 control=4 value=90 time=39\n",
      "note_on channel=9 note=42 velocity=27 time=0\n",
      "note_on channel=9 note=42 velocity=0 time=65\n",
      "note_on channel=9 note=38 velocity=56 time=63\n",
      "control_change channel=9 control=4 value=90 time=5\n",
      "note_on channel=9 note=42 velocity=36 time=0\n",
      "note_on channel=9 note=38 velocity=0 time=60\n",
      "note_on channel=9 note=42 velocity=0 time=5\n",
      "control_change channel=9 control=4 value=90 time=53\n",
      "note_on channel=9 note=42 velocity=29 time=0\n",
      "note_on channel=9 note=36 velocity=41 time=4\n",
      "note_on channel=9 note=42 velocity=0 time=61\n",
      "note_on channel=9 note=36 velocity=0 time=4\n",
      "control_change channel=9 control=4 value=90 time=55\n",
      "note_on channel=9 note=42 velocity=51 time=0\n",
      "note_on channel=9 note=42 velocity=0 time=65\n",
      "note_on channel=9 note=37 velocity=62 time=52\n",
      "control_change channel=9 control=4 value=90 time=2\n",
      "note_on channel=9 note=42 velocity=36 time=0\n",
      "note_on channel=9 note=37 velocity=0 time=62\n",
      "note_on channel=9 note=42 velocity=0 time=2\n",
      "control_change channel=9 control=4 value=90 time=58\n",
      "note_on channel=9 note=42 velocity=24 time=0\n",
      "note_on channel=9 note=42 velocity=0 time=65\n",
      "control_change channel=9 control=4 value=90 time=53\n",
      "note_on channel=9 note=42 velocity=34 time=0\n",
      "note_on channel=9 note=42 velocity=0 time=66\n",
      "note_on channel=9 note=36 velocity=34 time=41\n",
      "control_change channel=9 control=4 value=90 time=11\n",
      "note_on channel=9 note=42 velocity=52 time=0\n",
      "note_on channel=9 note=36 velocity=0 time=54\n",
      "note_on channel=9 note=42 velocity=0 time=11\n",
      "control_change channel=9 control=4 value=90 time=44\n",
      "note_on channel=9 note=42 velocity=27 time=0\n",
      "note_on channel=9 note=42 velocity=0 time=64\n",
      "note_on channel=9 note=37 velocity=63 time=62\n",
      "control_change channel=9 control=4 value=90 time=4\n",
      "note_on channel=9 note=42 velocity=40 time=0\n",
      "note_on channel=9 note=37 velocity=0 time=60\n",
      "note_on channel=9 note=42 velocity=0 time=5\n",
      "note_on channel=9 note=36 velocity=41 time=49\n",
      "control_change channel=9 control=4 value=90 time=8\n",
      "note_on channel=9 note=42 velocity=22 time=0\n",
      "note_on channel=9 note=36 velocity=0 time=56\n",
      "note_on channel=9 note=42 velocity=0 time=9\n",
      "control_change channel=9 control=4 value=90 time=58\n",
      "note_on channel=9 note=42 velocity=52 time=0\n",
      "note_on channel=9 note=42 velocity=0 time=65\n",
      "control_change channel=9 control=4 value=90 time=58\n",
      "note_on channel=9 note=42 velocity=40 time=0\n",
      "note_on channel=9 note=38 velocity=61 time=5\n",
      "note_on channel=9 note=42 velocity=0 time=60\n",
      "note_on channel=9 note=38 velocity=0 time=4\n",
      "control_change channel=9 control=4 value=90 time=49\n",
      "note_on channel=9 note=42 velocity=38 time=0\n",
      "note_on channel=9 note=42 velocity=0 time=65\n",
      "note_on channel=9 note=38 velocity=20 time=41\n",
      "control_change channel=9 control=4 value=90 time=3\n",
      "note_on channel=9 note=42 velocity=28 time=0\n",
      "note_on channel=9 note=38 velocity=0 time=61\n",
      "note_on channel=9 note=42 velocity=0 time=4\n",
      "note_on channel=9 note=36 velocity=31 time=48\n",
      "control_change channel=9 control=4 value=90 time=6\n",
      "note_on channel=9 note=42 velocity=45 time=0\n",
      "note_on channel=9 note=36 velocity=0 time=58\n",
      "note_on channel=9 note=42 velocity=0 time=7\n",
      "note_on channel=9 note=38 velocity=24 time=52\n",
      "control_change channel=9 control=4 value=90 time=8\n",
      "note_on channel=9 note=42 velocity=21 time=0\n",
      "note_on channel=9 note=38 velocity=0 time=57\n",
      "note_on channel=9 note=42 velocity=0 time=8\n",
      "note_on channel=9 note=37 velocity=60 time=47\n",
      "control_change channel=9 control=4 value=90 time=9\n",
      "note_on channel=9 note=42 velocity=29 time=0\n",
      "control_change channel=9 control=4 value=87 time=15\n",
      "control_change channel=9 control=4 value=83 time=15\n",
      "control_change channel=9 control=4 value=80 time=15\n",
      "note_on channel=9 note=37 velocity=0 time=10\n",
      "control_change channel=9 control=4 value=76 time=5\n",
      "note_on channel=9 note=42 velocity=0 time=4\n",
      "control_change channel=9 control=4 value=72 time=11\n",
      "control_change channel=9 control=4 value=69 time=15\n",
      "control_change channel=9 control=4 value=65 time=15\n",
      "control_change channel=9 control=4 value=62 time=15\n",
      "note_on channel=9 note=36 velocity=33 time=2\n",
      "control_change channel=9 control=4 value=60 time=3\n",
      "note_on channel=9 note=46 velocity=38 time=0\n",
      "control_change channel=9 control=4 value=33 time=15\n",
      "control_change channel=9 control=4 value=6 time=15\n",
      "control_change channel=9 control=4 value=0 time=3\n",
      "control_change channel=9 control=4 value=25 time=15\n",
      "note_on channel=9 note=36 velocity=0 time=14\n",
      "control_change channel=9 control=4 value=51 time=1\n",
      "note_on channel=9 note=46 velocity=0 time=2\n",
      "control_change channel=9 control=4 value=77 time=13\n",
      "note_on channel=9 note=44 velocity=60 time=3\n",
      "control_change channel=9 control=4 value=90 time=4\n",
      "control_change channel=9 control=4 value=90 time=39\n",
      "note_on channel=9 note=42 velocity=29 time=0\n",
      "note_on channel=9 note=44 velocity=0 time=22\n",
      "note_on channel=9 note=42 velocity=0 time=43\n",
      "note_on channel=9 note=38 velocity=40 time=35\n",
      "control_change channel=9 control=4 value=90 time=11\n",
      "note_on channel=9 note=42 velocity=38 time=0\n",
      "note_on channel=9 note=38 velocity=0 time=53\n",
      "note_on channel=9 note=42 velocity=0 time=12\n",
      "note_on channel=9 note=36 velocity=34 time=30\n",
      "control_change channel=9 control=4 value=90 time=26\n",
      "note_on channel=9 note=42 velocity=27 time=0\n",
      "note_on channel=9 note=36 velocity=0 time=39\n",
      "note_on channel=9 note=42 velocity=0 time=26\n",
      "note_on channel=9 note=38 velocity=31 time=41\n",
      "control_change channel=9 control=4 value=90 time=7\n",
      "note_on channel=9 note=42 velocity=23 time=0\n",
      "note_on channel=9 note=38 velocity=0 time=17\n",
      "note_on channel=9 note=38 velocity=22 time=0\n",
      "note_on channel=9 note=38 velocity=0 time=17\n",
      "note_on channel=9 note=38 velocity=22 time=0\n",
      "note_on channel=9 note=38 velocity=0 time=16\n",
      "note_on channel=9 note=38 velocity=27 time=0\n",
      "note_on channel=9 note=38 velocity=0 time=7\n",
      "note_on channel=9 note=42 velocity=0 time=8\n",
      "note_on channel=9 note=38 velocity=12 time=17\n",
      "note_on channel=9 note=38 velocity=0 time=16\n",
      "control_change channel=9 control=4 value=90 time=13\n",
      "note_on channel=9 note=42 velocity=26 time=0\n",
      "note_on channel=9 note=36 velocity=41 time=6\n",
      "note_on channel=9 note=42 velocity=0 time=59\n",
      "note_on channel=9 note=36 velocity=0 time=6\n",
      "control_change channel=9 control=4 value=90 time=43\n",
      "note_on channel=9 note=42 velocity=20 time=0\n",
      "note_on channel=9 note=42 velocity=0 time=65\n",
      "note_on channel=9 note=38 velocity=66 time=63\n",
      "control_change channel=9 control=4 value=90 time=2\n",
      "note_on channel=9 note=42 velocity=43 time=0\n",
      "note_on channel=9 note=38 velocity=0 time=63\n",
      "note_on channel=9 note=42 velocity=0 time=2\n",
      "control_change channel=9 control=4 value=90 time=54\n",
      "note_on channel=9 note=42 velocity=29 time=0\n",
      "note_on channel=9 note=42 velocity=0 time=65\n",
      "control_change channel=9 control=4 value=90 time=55\n",
      "note_on channel=9 note=42 velocity=60 time=0\n",
      "note_on channel=9 note=42 velocity=0 time=65\n",
      "control_change channel=9 control=4 value=90 time=52\n",
      "note_on channel=9 note=42 velocity=38 time=0\n",
      "note_on channel=9 note=38 velocity=49 time=2\n",
      "note_on channel=9 note=42 velocity=0 time=62\n",
      "note_on channel=9 note=38 velocity=0 time=2\n",
      "control_change channel=9 control=4 value=90 time=49\n",
      "note_on channel=9 note=42 velocity=47 time=0\n",
      "note_on channel=9 note=42 velocity=0 time=65\n",
      "note_on channel=9 note=38 velocity=25 time=41\n",
      "control_change channel=9 control=4 value=90 time=15\n",
      "note_on channel=9 note=42 velocity=20 time=0\n",
      "note_on channel=9 note=38 velocity=0 time=50\n",
      "note_on channel=9 note=42 velocity=0 time=15\n",
      "note_on channel=9 note=38 velocity=13 time=43\n",
      "note_on channel=9 note=36 velocity=38 time=12\n",
      "control_change channel=9 control=4 value=90 time=4\n",
      "note_on channel=9 note=42 velocity=45 time=0\n",
      "note_on channel=9 note=38 velocity=0 time=49\n",
      "note_on channel=9 note=36 velocity=0 time=12\n",
      "note_on channel=9 note=42 velocity=0 time=4\n",
      "control_change channel=9 control=4 value=90 time=56\n",
      "note_on channel=9 note=38 velocity=11 time=0\n",
      "note_on channel=9 note=42 velocity=20 time=0\n",
      "note_on channel=9 note=38 velocity=0 time=65\n",
      "note_on channel=9 note=42 velocity=0 time=0\n",
      "note_on channel=9 note=38 velocity=54 time=40\n",
      "control_change channel=9 control=4 value=90 time=18\n",
      "note_on channel=9 note=42 velocity=40 time=0\n",
      "control_change channel=9 control=4 value=87 time=30\n",
      "note_on channel=9 note=38 velocity=0 time=17\n",
      "control_change channel=9 control=4 value=83 time=13\n",
      "note_on channel=9 note=42 velocity=0 time=5\n",
      "control_change channel=9 control=4 value=82 time=3\n",
      "control_change channel=9 control=4 value=67 time=15\n",
      "control_change channel=9 control=4 value=51 time=15\n",
      "control_change channel=9 control=4 value=48 time=3\n",
      "note_on channel=9 note=36 velocity=33 time=10\n",
      "control_change channel=9 control=4 value=26 time=5\n",
      "note_on channel=9 note=46 velocity=49 time=3\n",
      "control_change channel=9 control=4 value=3 time=12\n",
      "control_change channel=9 control=4 value=0 time=2\n",
      "control_change channel=9 control=4 value=13 time=15\n",
      "control_change channel=9 control=4 value=27 time=15\n",
      "note_on channel=9 note=36 velocity=0 time=13\n",
      "control_change channel=9 control=4 value=40 time=2\n",
      "note_on channel=9 note=46 velocity=0 time=6\n",
      "control_change channel=9 control=4 value=54 time=9\n",
      "control_change channel=9 control=4 value=67 time=15\n",
      "control_change channel=9 control=4 value=68 time=0\n",
      "note_on channel=9 note=44 velocity=72 time=2\n",
      "control_change channel=9 control=4 value=78 time=13\n",
      "control_change channel=9 control=4 value=89 time=15\n",
      "control_change channel=9 control=4 value=90 time=0\n",
      "note_on channel=9 note=42 velocity=29 time=0\n",
      "note_on channel=9 note=44 velocity=0 time=36\n",
      "note_on channel=9 note=42 velocity=0 time=30\n",
      "note_on channel=9 note=38 velocity=51 time=46\n",
      "control_change channel=9 control=4 value=90 time=7\n",
      "note_on channel=9 note=42 velocity=51 time=0\n",
      "note_on channel=9 note=38 velocity=0 time=58\n",
      "note_on channel=9 note=42 velocity=0 time=7\n",
      "note_on channel=9 note=36 velocity=37 time=31\n",
      "control_change channel=9 control=4 value=90 time=23\n",
      "note_on channel=9 note=42 velocity=40 time=0\n",
      "note_on channel=9 note=36 velocity=0 time=42\n",
      "note_on channel=9 note=42 velocity=0 time=23\n",
      "note_on channel=9 note=38 velocity=10 time=45\n",
      "control_change channel=9 control=4 value=90 time=5\n",
      "note_on channel=9 note=42 velocity=27 time=0\n",
      "note_on channel=9 note=38 velocity=0 time=59\n",
      "note_on channel=9 note=42 velocity=0 time=6\n",
      "note_on channel=9 note=36 velocity=39 time=51\n",
      "control_change channel=9 control=4 value=90 time=11\n",
      "note_on channel=9 note=42 velocity=33 time=0\n",
      "note_on channel=9 note=36 velocity=0 time=53\n",
      "note_on channel=9 note=42 velocity=0 time=12\n",
      "note_on channel=9 note=38 velocity=13 time=50\n",
      "control_change channel=9 control=4 value=90 time=6\n",
      "note_on channel=9 note=42 velocity=21 time=0\n",
      "note_on channel=9 note=38 velocity=0 time=59\n",
      "note_on channel=9 note=42 velocity=0 time=6\n",
      "control_change channel=9 control=4 value=90 time=51\n",
      "note_on channel=9 note=42 velocity=34 time=0\n",
      "note_on channel=9 note=37 velocity=64 time=2\n",
      "control_change channel=9 control=4 value=87 time=13\n",
      "control_change channel=9 control=4 value=83 time=15\n",
      "control_change channel=9 control=4 value=79 time=15\n",
      "control_change channel=9 control=4 value=75 time=15\n",
      "note_on channel=9 note=42 velocity=0 time=4\n",
      "note_on channel=9 note=37 velocity=0 time=2\n",
      "control_change channel=9 control=4 value=71 time=9\n",
      "control_change channel=9 control=4 value=67 time=15\n",
      "control_change channel=9 control=4 value=63 time=15\n",
      "control_change channel=9 control=4 value=59 time=15\n",
      "note_on channel=9 note=46 velocity=51 time=9\n",
      "control_change channel=9 control=4 value=55 time=6\n",
      "note_on channel=9 note=36 velocity=41 time=4\n",
      "control_change channel=9 control=4 value=52 time=7\n",
      "control_change channel=9 control=4 value=27 time=15\n",
      "control_change channel=9 control=4 value=2 time=15\n",
      "control_change channel=9 control=4 value=0 time=1\n",
      "control_change channel=9 control=4 value=16 time=15\n",
      "note_on channel=9 note=46 velocity=0 time=2\n",
      "note_on channel=9 note=36 velocity=0 time=9\n",
      "control_change channel=9 control=4 value=33 time=4\n",
      "control_change channel=9 control=4 value=50 time=15\n",
      "control_change channel=9 control=4 value=67 time=15\n",
      "note_on channel=9 note=44 velocity=57 time=0\n",
      "note_on channel=9 note=42 velocity=23 time=12\n",
      "control_change channel=9 control=4 value=84 time=3\n",
      "control_change channel=9 control=4 value=90 time=5\n",
      "note_on channel=9 note=44 velocity=0 time=45\n",
      "note_on channel=9 note=42 velocity=0 time=11\n",
      "note_on channel=9 note=38 velocity=53 time=43\n",
      "control_change channel=9 control=4 value=90 time=8\n",
      "note_on channel=9 note=42 velocity=60 time=0\n",
      "note_on channel=9 note=38 velocity=0 time=56\n",
      "note_on channel=9 note=42 velocity=0 time=8\n",
      "control_change channel=9 control=4 value=90 time=48\n",
      "note_on channel=9 note=42 velocity=40 time=0\n",
      "note_on channel=9 note=42 velocity=0 time=65\n",
      "control_change channel=9 control=4 value=90 time=69\n",
      "note_on channel=9 note=42 velocity=39 time=0\n",
      "note_on channel=9 note=42 velocity=0 time=66\n",
      "note_on channel=9 note=38 velocity=17 time=53\n",
      "control_change channel=9 control=4 value=89 time=52\n",
      "note_on channel=9 note=38 velocity=0 time=12\n",
      "note_on channel=9 note=38 velocity=55 time=38\n",
      "note_on channel=9 note=38 velocity=0 time=65\n",
      "control_change channel=9 control=4 value=88 time=56\n",
      "note_on channel=9 note=37 velocity=70 time=4\n",
      "note_on channel=9 note=37 velocity=0 time=64\n",
      "note_on channel=9 note=36 velocity=41 time=57\n",
      "control_change channel=9 control=4 value=87 time=46\n",
      "note_on channel=9 note=36 velocity=0 time=19\n",
      "note_on channel=9 note=43 velocity=94 time=71\n",
      "note_on channel=9 note=43 velocity=0 time=64\n",
      "control_change channel=9 control=4 value=86 time=17\n",
      "control_change channel=9 control=4 value=85 time=172\n",
      "MetaMessage('end_of_track', time=1)\n"
     ]
    }
   ],
   "source": [
    "sample = X_train[0].midi_data\n",
    "for i, track in enumerate(sample.tracks):\n",
    "    print('Track {}: {}'.format(i, track.name))\n",
    "    for msg in track:\n",
    "        print(msg)"
   ]
  },
  {
   "cell_type": "code",
   "execution_count": 31,
   "metadata": {},
   "outputs": [
    {
     "name": "stdout",
     "output_type": "stream",
     "text": [
      "124\n",
      "124\n"
     ]
    }
   ],
   "source": [
    "count = 0\n",
    "print(len(X_validation))\n",
    "for x in X_validation:\n",
    "    count += 1 if x.midi_data.type == 0 else 0\n",
    "\n",
    "print(count)"
   ]
  },
  {
   "cell_type": "code",
   "execution_count": 28,
   "metadata": {},
   "outputs": [],
   "source": [
    "sample = X_train[0].midi_data\n",
    "track = sample.tracks[0]\n",
    "\n",
    "temp_msg = mido.MetaMessage('set_tempo', tempo=mido.bpm2tempo(120), time=0)\n",
    "\n",
    "for i in sample.tracks:\n",
    "    for j, msg in enumerate(i):\n",
    "        if msg.type == \"set_tempo\":\n",
    "            i[j] = mido.MetaMessage('set_tempo', tempo=mido.bpm2tempo(120), time=0)\n",
    "        # msg.copy(tempo=100000)\n",
    "        # print(dir(msg))\n",
    "        # if j == 0: break\n",
    "sample.save(\"test\")\n",
    "\n",
    "play_audio(mido.MidiFile(\"test\"), 5)\n",
    "# track.append(temp_msg)\n",
    "# play_audio(sample, 5)"
   ]
  }
 ],
 "metadata": {
  "kernelspec": {
   "display_name": "Python 3",
   "language": "python",
   "name": "python3"
  },
  "language_info": {
   "codemirror_mode": {
    "name": "ipython",
    "version": 3
   },
   "file_extension": ".py",
   "mimetype": "text/x-python",
   "name": "python",
   "nbconvert_exporter": "python",
   "pygments_lexer": "ipython3",
   "version": "3.11.1"
  }
 },
 "nbformat": 4,
 "nbformat_minor": 2
}
